<?xml version="1.0" encoding="UTF-8" standalone="no"?>
<!-- Created with Inkscape (http://www.inkscape.org/) -->

<svg
   xmlns:dc="http://purl.org/dc/elements/1.1/"
   xmlns:cc="http://creativecommons.org/ns#"
   xmlns:rdf="http://www.w3.org/1999/02/22-rdf-syntax-ns#"
   xmlns:svg="http://www.w3.org/2000/svg"
   xmlns="http://www.w3.org/2000/svg"
   xmlns:sodipodi="http://sodipodi.sourceforge.net/DTD/sodipodi-0.dtd"
   xmlns:inkscape="http://www.inkscape.org/namespaces/inkscape"
   width="210mm"
   height="297mm"
   viewBox="0 0 744.09448819 1052.3622047"
   id="svg2"
   version="1.1"
   inkscape:version="0.91 r13725"
   sodipodi:docname="drawing.svg">
  <defs
     id="defs4" />
  <sodipodi:namedview
     id="base"
     pagecolor="#ffffff"
     bordercolor="#666666"
     borderopacity="1.0"
     inkscape:pageopacity="0.0"
     inkscape:pageshadow="2"
     inkscape:zoom="0.49497475"
     inkscape:cx="-149.57211"
     inkscape:cy="618.1359"
     inkscape:document-units="px"
     inkscape:current-layer="layer1"
     showgrid="false"
     inkscape:snap-grids="true"
     inkscape:window-width="1920"
     inkscape:window-height="1007"
     inkscape:window-x="0"
     inkscape:window-y="27"
     inkscape:window-maximized="1" />
  <metadata
     id="metadata7">
    <rdf:RDF>
      <cc:Work
         rdf:about="">
        <dc:format>image/svg+xml</dc:format>
        <dc:type
           rdf:resource="http://purl.org/dc/dcmitype/StillImage" />
        <dc:title />
      </cc:Work>
    </rdf:RDF>
  </metadata>
  <g
     inkscape:label="Layer 1"
     inkscape:groupmode="layer"
     id="layer1">
    <rect
       y="-163.98743"
       x="-470.56573"
       height="163.61754"
       width="337.0639"
       id="rect4417"
       style="fill:#262d35;fill-opacity:1;stroke:none;stroke-width:0.91299999;stroke-miterlimit:4;stroke-dasharray:none;stroke-opacity:1" />
    <rect
       y="763.39929"
       x="833.86725"
       height="290.91626"
       width="362.92261"
       id="rect4320"
       style="fill:#f0dd8a;fill-opacity:1;stroke:none;stroke-width:0.91299999;stroke-miterlimit:4;stroke-dasharray:none;stroke-opacity:1" />
    <rect
       y="759.14551"
       x="-601.47876"
       height="311.86697"
       width="362.97906"
       id="rect4268"
       style="fill:#e28228;fill-opacity:1;stroke:none;stroke-width:0.91299999;stroke-miterlimit:4;stroke-dasharray:none;stroke-opacity:1" />
    <rect
       style="fill:#f0dd8a;fill-opacity:1;stroke:none;stroke-width:0.91299999;stroke-miterlimit:4;stroke-dasharray:none;stroke-opacity:1"
       id="rect4258"
       width="1080.9299"
       height="678.31744"
       x="-1153.8516"
       y="12.157593" />
    <rect
       style="fill:#262d35;fill-opacity:1;stroke:none;stroke-width:0.91299999;stroke-miterlimit:4;stroke-dasharray:none;stroke-opacity:1"
       id="rect4351"
       width="1061.3433"
       height="78.764717"
       x="-1152.4187"
       y="16.82988" />
    <rect
       y="1153.7705"
       x="-567.26477"
       height="275.79373"
       width="409.11179"
       id="rect4264"
       style="fill:#ecaf76;fill-opacity:1;stroke:none;stroke-width:0.91299999;stroke-miterlimit:4;stroke-dasharray:none;stroke-opacity:1" />
    <rect
       style="fill:#262d35;fill-opacity:1;stroke:none;stroke-width:0.91299999;stroke-miterlimit:4;stroke-dasharray:none;stroke-opacity:1"
       id="rect4262"
       width="625.33264"
       height="256.46448"
       x="-927.47888"
       y="226.49335" />
    <rect
       y="1309.3268"
       x="897.87097"
       height="307.46741"
       width="358.7384"
       id="rect4260"
       style="fill:#e7c73c;fill-opacity:1;stroke:none;stroke-width:0.91299999;stroke-miterlimit:4;stroke-dasharray:none;stroke-opacity:1" />
    <g
       id="g4226"
       transform="translate(-921.15759,-775.71593)">
      <flowRoot
         transform="matrix(1.1937877,0,0,1.1937877,555.44217,327.16082)"
         style="font-style:normal;font-weight:normal;font-size:40px;line-height:125%;font-family:sans-serif;letter-spacing:0px;word-spacing:0px;fill:#009246;fill-opacity:1;stroke:none;stroke-width:1px;stroke-linecap:butt;stroke-linejoin:miter;stroke-opacity:1"
         id="flowRoot4157"
         xml:space="preserve"><flowRegion
           id="flowRegion4159"><rect
             style="fill:#009246;fill-opacity:1;stroke:none;stroke-opacity:1"
             y="403.79077"
             x="-417.14285"
             height="50"
             width="315.71429"
             id="rect4161" /></flowRegion><flowPara
           style="font-style:normal;font-variant:normal;font-weight:normal;font-stretch:normal;font-family:Milkshake;-inkscape-font-specification:Milkshake;fill:#009246;fill-opacity:1;stroke:none"
           id="flowPara4163">Italian</flowPara></flowRoot>      <flowRoot
         transform="translate(-111.49747,6.0609153)"
         style="font-style:normal;font-weight:normal;font-size:48.11693954px;line-height:125%;font-family:sans-serif;letter-spacing:0px;word-spacing:0px;fill:#ffffff;fill-opacity:1;stroke:#000000;stroke-width:1.20292354px;stroke-linecap:butt;stroke-linejoin:miter;stroke-opacity:1"
         id="flowRoot4165"
         xml:space="preserve"><flowRegion
           style="stroke-width:1.20292354px"
           id="flowRegion4167"><rect
             style="fill:#ffffff;fill-opacity:1;stroke:#000000;stroke-width:1.44702494px;stroke-opacity:1"
             y="802.6181"
             x="320.20432"
             height="82.486183"
             width="321.35242"
             id="rect4169" /></flowRegion><flowPara
           style="font-style:normal;font-variant:normal;font-weight:normal;font-stretch:normal;font-family:Milkshake;-inkscape-font-specification:Milkshake;stroke-width:1.20292354px"
           id="flowPara4171">food</flowPara></flowRoot>      <flowRoot
         transform="translate(-151.49747,6.0609153)"
         style="font-style:normal;font-weight:normal;font-size:47.51416779px;line-height:125%;font-family:sans-serif;letter-spacing:0px;word-spacing:0px;fill:#ce2b37;fill-opacity:1;stroke:none;stroke-width:1.18785417px;stroke-linecap:butt;stroke-linejoin:miter;stroke-opacity:1"
         id="flowRoot4173"
         xml:space="preserve"><flowRegion
           style="stroke-width:1.18785417px"
           id="flowRegion4175"><rect
             style="fill:#ce2b37;fill-opacity:1;stroke:none;stroke-width:1.41099751px;stroke-opacity:1"
             y="802.84332"
             x="467.13251"
             height="95.028336"
             width="295.2666"
             id="rect4177" /></flowRegion><flowPara
           style="font-style:normal;font-variant:normal;font-weight:normal;font-stretch:normal;font-family:Milkshake;-inkscape-font-specification:Milkshake;fill:#ce2b37;fill-opacity:1;stroke:none;stroke-width:1.18785417px"
           id="flowPara4179">truck</flowPara></flowRoot>    </g>
    <path
       style="fill:#f7dc32;fill-opacity:1;stroke:#000000;stroke-width:0.91299999;stroke-miterlimit:4;stroke-dasharray:none;stroke-opacity:1"
       d="m 301.00597,56.5409 c -0.2311,0 -0.4506,0.0389 -0.6641,0.0937 l -202.90628,0 c -6.71549,0 -12.12109,5.40561 -12.12109,12.1211 l 0,122.22265 -8.38867,0 c -3.47098,0 -6.26563,2.79465 -6.26563,6.26563 l 0,18.79492 c 0,3.47099 2.79465,6.26562 6.26563,6.26562 l 30.91797,0 c 0.88398,0 1.72315,-0.18226 2.48437,-0.50976 l 1.93359,0 a 50.230736,43.474373 0 0 1 -0.91211,-8.08203 50.230736,43.474373 0 0 1 50.23052,-43.47461 50.230736,43.474373 0 0 1 50.2324,43.47461 50.230736,43.474373 0 0 1 -0.9043,8.08203 l 81.1602,0 a 50.230736,43.474373 0 0 1 -0.9102,-8.08203 50.230736,43.474373 0 0 1 50.2305,-43.47461 50.230736,43.474373 0 0 1 50.2305,43.47461 50.230736,43.474373 0 0 1 -1.4219,10.05859 l 19.0976,0 c 6.0068,0 10.8418,-4.83499 10.8418,-10.8418 l 0,-50.96093 c 0,-3.68382 -1.823,-6.92124 -4.6152,-8.87891 l 0.5898,0 -39.5468,-22.2168 -37.5059,-61.01367 0.2422,0 c 1.4755,0 2.6641,-1.18847 2.6641,-2.66406 l 0,-7.99023 c 0,-1.47559 -1.1886,-2.66407 -2.6641,-2.66407 l -38.2949,0 z"
       id="rect4295"
       inkscape:connector-curvature="0" />
    <path
       style="fill:#60d2cd;fill-opacity:1;stroke:#000000;stroke-width:0.51300001;stroke-miterlimit:4;stroke-dasharray:none;stroke-opacity:1"
       d="m 291.89087,76.83735 32.3249,0 26.769,53.03301 -59.0939,0 z"
       id="rect4315"
       inkscape:connector-curvature="0"
       sodipodi:nodetypes="ccccc" />
    <g
       id="g4326"
       transform="translate(-1040,-359.28571)">
      <circle
         r="36.785713"
         cy="576.29077"
         cx="1199.6428"
         id="path4322"
         style="fill:#252525;fill-opacity:1;stroke:none;stroke-width:0.51300001;stroke-miterlimit:4;stroke-dasharray:none;stroke-opacity:1" />
      <circle
         r="17.5"
         cy="576.29077"
         cx="1199.6428"
         id="path4324"
         style="fill:#c0c0c0;fill-opacity:1;stroke:none;stroke-width:0.51300001;stroke-miterlimit:4;stroke-dasharray:none;stroke-opacity:1" />
    </g>
    <g
       id="g4330"
       transform="translate(-856.85714,-360)">
      <circle
         style="fill:#252525;fill-opacity:1;stroke:none;stroke-width:0.51300001;stroke-miterlimit:4;stroke-dasharray:none;stroke-opacity:1"
         id="circle4332"
         cx="1199.6428"
         cy="576.29077"
         r="36.785713" />
      <circle
         style="fill:#c0c0c0;fill-opacity:1;stroke:none;stroke-width:0.51300001;stroke-miterlimit:4;stroke-dasharray:none;stroke-opacity:1"
         id="circle4334"
         cx="1199.6428"
         cy="576.29077"
         r="17.5" />
    </g>
    <g
       id="g4352"
       transform="translate(-284.86302,-880.85302)">
      <rect
         transform="matrix(0.99999996,2.6991806e-4,-2.6991806e-4,0.99999996,0,0)"
         y="976.38605"
         x="421.69839"
         height="46.10717"
         width="29.446598"
         id="rect4336"
         style="fill:#009246;fill-opacity:1;stroke:none;stroke-width:0.91299999;stroke-miterlimit:4;stroke-dasharray:none;stroke-opacity:1" />
      <rect
         transform="matrix(0.99999996,2.6991806e-4,-2.6991806e-4,0.99999996,0,0)"
         style="fill:#ffffff;fill-opacity:1;stroke:none;stroke-width:0.91299999;stroke-miterlimit:4;stroke-dasharray:none;stroke-opacity:1"
         id="rect4340"
         width="29.446598"
         height="46.10717"
         x="450.83505"
         y="976.38605" />
      <rect
         transform="matrix(0.99999996,2.6991806e-4,-2.6991806e-4,0.99999996,0,0)"
         y="976.38605"
         x="479.5842"
         height="46.10717"
         width="29.446598"
         id="rect4342"
         style="fill:#ce2b37;fill-opacity:1;stroke:none;stroke-width:0.91299999;stroke-miterlimit:4;stroke-dasharray:none;stroke-opacity:1" />
    </g>
    <path
       inkscape:connector-curvature="0"
       id="path4171"
       d="m 777.37952,755.06233 c -0.0678,0 -0.13223,0.0114 -0.19491,0.0275 l -59.54955,0 c -1.97089,0 -3.55734,1.58646 -3.55734,3.55734 l 0,35.87029 -2.46193,0 c -1.01868,0 -1.83886,0.82018 -1.83886,1.83886 l 0,5.51599 c 0,1.01867 0.82018,1.83885 1.83886,1.83885 l 9.0739,0 c 0.25944,0 0.50571,-0.0534 0.72912,-0.14961 l 0.56748,0 a 14.741875,12.758996 0 0 1 -0.26769,-2.37193 14.741875,12.758996 0 0 1 14.74181,-12.75906 14.741875,12.758996 0 0 1 14.74237,12.75906 14.741875,12.758996 0 0 1 -0.26541,2.37193 l 23.81913,0 a 14.741875,12.758996 0 0 1 -0.26712,-2.37193 14.741875,12.758996 0 0 1 14.7418,-12.75906 14.741875,12.758996 0 0 1 14.74183,12.75906 14.741875,12.758996 0 0 1 -0.41734,2.95203 l 5.60484,0 c 1.76293,0 3.18189,-1.41899 3.18189,-3.18189 l 0,-14.95618 c 0,-1.08113 -0.53501,-2.03126 -1.35449,-2.60581 l 0.17313,0 -11.60632,-6.52025 -11.00737,-17.90648 0.0711,0 c 0.43302,0 0.78187,-0.3488 0.78187,-0.78187 l 0,-2.34499 c 0,-0.43306 -0.34885,-0.78186 -0.78187,-0.78186 l -11.23891,0 z"
       style="fill:#f7dc32;fill-opacity:1;stroke:#000000;stroke-width:0.26795012;stroke-miterlimit:4;stroke-dasharray:none;stroke-opacity:1" />
    <path
       sodipodi:nodetypes="ccccc"
       inkscape:connector-curvature="0"
       id="path4173"
       d="m 774.70438,761.019 9.48682,0 7.85625,15.56429 -17.34307,0 z"
       style="fill:#60d2cd;fill-opacity:1;stroke:#000000;stroke-width:0.15055686;stroke-miterlimit:4;stroke-dasharray:none;stroke-opacity:1" />
    <g
       transform="matrix(0.29348315,0,0,0.29348315,383.81688,633.02423)"
       id="g4175">
      <circle
         style="fill:#252525;fill-opacity:1;stroke:none;stroke-width:0.51300001;stroke-miterlimit:4;stroke-dasharray:none;stroke-opacity:1"
         id="circle4177"
         cx="1199.6428"
         cy="576.29077"
         r="36.785713" />
      <circle
         style="fill:#c0c0c0;fill-opacity:1;stroke:none;stroke-width:0.51300001;stroke-miterlimit:4;stroke-dasharray:none;stroke-opacity:1"
         id="circle4179"
         cx="1199.6428"
         cy="576.29077"
         r="17.5" />
    </g>
    <g
       transform="matrix(0.29348315,0,0,0.29348315,437.56621,632.8146)"
       id="g4181">
      <circle
         r="36.785713"
         cy="576.29077"
         cx="1199.6428"
         id="circle4183"
         style="fill:#252525;fill-opacity:1;stroke:none;stroke-width:0.51300001;stroke-miterlimit:4;stroke-dasharray:none;stroke-opacity:1" />
      <circle
         r="17.5"
         cy="576.29077"
         cx="1199.6428"
         id="circle4185"
         style="fill:#c0c0c0;fill-opacity:1;stroke:none;stroke-width:0.51300001;stroke-miterlimit:4;stroke-dasharray:none;stroke-opacity:1" />
    </g>
    <g
       id="g4216"
       transform="matrix(0.40375247,0,0,0.29348315,331.72337,578.714)"
       style="fill:#ff7e0c;fill-opacity:1">
      <rect
         transform="matrix(-0.017887,-0.99984001,0.99999987,-5.1414851e-4,0,0)"
         style="fill:#ff7e0c;fill-opacity:1;stroke:none;stroke-width:0.91299999;stroke-miterlimit:4;stroke-dasharray:none;stroke-opacity:1"
         id="rect4189"
         width="9.557991"
         height="88.265411"
         x="-676.80499"
         y="967.02112" />
      <rect
         transform="matrix(-0.02101213,-0.99977922,0.9999999,-4.3764989e-4,0,0)"
         y="965.10742"
         x="-659.17194"
         height="88.265404"
         width="8.1364393"
         id="rect4191"
         style="fill:#ff7e0c;fill-opacity:1;stroke:none;stroke-width:0.91299999;stroke-miterlimit:4;stroke-dasharray:none;stroke-opacity:1" />
      <rect
         transform="matrix(-0.01724576,-0.99985128,0.99999986,-5.3326921e-4,0,0)"
         style="fill:#ff7e0c;fill-opacity:1;stroke:none;stroke-width:0.91299999;stroke-miterlimit:4;stroke-dasharray:none;stroke-opacity:1"
         id="rect4193"
         width="9.9133921"
         height="88.265411"
         x="-643.04883"
         y="967.70142" />
    </g>
    <path
       style="fill:#cdd8e8;fill-opacity:1;stroke:none;stroke-width:0.91299999;stroke-miterlimit:4;stroke-dasharray:none;stroke-opacity:1"
       d="M 548.51367 325.05273 A 33.335033 42.426407 0 0 0 515.17773 367.47852 A 33.335033 42.426407 0 0 0 517.39258 382.6543 A 48.487324 46.467018 0 0 0 515.16406 383.88086 A 31.31473 26.263966 0 0 0 515.17773 383.64062 A 31.31473 26.263966 0 0 0 483.86328 357.37695 A 31.31473 26.263966 0 0 0 452.54883 383.64062 A 31.31473 26.263966 0 0 0 478.00781 409.42773 A 34.345188 33.335033 0 0 0 462.65039 437.17969 A 34.345188 33.335033 0 0 0 496.99414 470.51367 A 34.345188 33.335033 0 0 0 516.1543 464.8125 A 48.487324 46.467018 0 0 0 539.42188 470.51367 A 48.487324 46.467018 0 0 0 564.91406 463.53711 A 20.203051 41.416256 0 0 0 583.86719 490.7168 A 20.203051 41.416256 0 0 0 604.07031 449.30078 A 20.203051 41.416256 0 0 0 603.76758 442.16602 A 56.568542 27.274118 0 0 0 656.59961 414.95508 A 56.568542 27.274118 0 0 0 600.03125 387.68164 A 56.568542 27.274118 0 0 0 576.63867 390.16016 A 33.335033 42.426407 0 0 0 581.84766 367.47852 A 33.335033 42.426407 0 0 0 548.51367 325.05273 z "
       id="path4242" />
    <path
       style="fill:#d5dce2;fill-opacity:1;stroke:none;stroke-width:0.91299999;stroke-miterlimit:4;stroke-dasharray:none;stroke-opacity:1"
       d="M 141.42188 367.47852 A 34.345188 32.324883 0 0 0 107.07617 399.80273 A 34.345188 32.324883 0 0 0 107.83789 406.39258 A 46.467018 28.284271 0 0 0 98.994141 405.86523 A 46.467018 28.284271 0 0 0 52.527344 434.14844 A 46.467018 28.284271 0 0 0 71.1875 456.76562 A 16.162441 35.355339 0 0 0 68.689453 475.56445 A 16.162441 35.355339 0 0 0 84.853516 510.91992 A 16.162441 35.355339 0 0 0 92.507812 506.66797 A 29.294424 49.497475 0 0 0 116.16797 527.08203 A 29.294424 49.497475 0 0 0 143.50781 495.20508 A 36.36549 45.456867 0 0 0 163.64453 502.83984 A 36.36549 45.456867 0 0 0 200.00977 457.38281 A 36.36549 45.456867 0 0 0 172.55273 413.36914 A 34.345188 32.324883 0 0 0 175.76562 399.80273 A 34.345188 32.324883 0 0 0 141.42188 367.47852 z "
       id="path4254" />
    <path
       style="fill:#cbcfde;fill-opacity:1;stroke:none;stroke-width:0.91299999;stroke-miterlimit:4;stroke-dasharray:none;stroke-opacity:1"
       d="M 323.24805 464.45312 A 30.304577 28.284271 0 0 0 292.94336 492.73828 A 30.304577 28.284271 0 0 0 293.70703 498.88672 A 29.294424 26.263966 0 0 0 266.67969 525.0625 A 29.294424 26.263966 0 0 0 295.97461 551.32617 A 29.294424 26.263966 0 0 0 297.39648 551.28125 A 28.284271 31.31473 0 0 0 296.98438 556.37695 A 28.284271 31.31473 0 0 0 325.26953 587.69141 A 28.284271 31.31473 0 0 0 351.60156 567.7207 A 26.263966 28.284271 0 0 0 369.7168 575.57031 A 26.263966 28.284271 0 0 0 395.98047 547.28516 A 26.263966 28.284271 0 0 0 377.30859 520.21875 A 36.36549 27.274118 0 0 0 377.79688 515.9707 A 36.36549 27.274118 0 0 0 353.41406 490.25391 A 30.304577 28.284271 0 0 0 323.24805 464.45312 z "
       id="path4264" />
    <g
       id="flowRoot4263"
       style="font-style:normal;font-weight:normal;font-size:40px;line-height:125%;font-family:sans-serif;letter-spacing:0px;word-spacing:0px;fill:#009246;fill-opacity:1;stroke:none;stroke-width:1px;stroke-linecap:butt;stroke-linejoin:miter;stroke-opacity:1"
       transform="matrix(2.1199093,0,0,2.1199093,943.49089,26.466405)">
      <path
         id="path4288"
         style="font-style:normal;font-variant:normal;font-weight:normal;font-stretch:normal;font-family:Milkshake;-inkscape-font-specification:Milkshake;fill:#009246;fill-opacity:1;stroke:none"
         d="m -393.86258,410.30399 q 0.68,0 1.2,0.44 0.52,0.4 0.52,1.2 0,0.56 -0.28,1.04 -0.24,0.44 -0.64,0.8 -0.36,0.36 -0.84,0.6 -0.48,0.24 -0.92,0.32 -0.24,0.24 -0.48,0.92 -0.24,0.64 -0.48,1.84 -0.24,1.2 -0.56,3.04 -0.32,1.84 -0.76,4.44 -0.52,3.24 -1.48,5.96 -0.96,2.68 -2.4,4.64 -1.44,1.92 -3.4,3.04 -1.96,1.08 -4.52,1.08 -1.76,0 -3.24,-0.72 -1.44,-0.72 -2.48,-1.76 -1.04,-1.04 -1.64,-2.2 -0.56,-1.2 -0.56,-2.12 0,-0.32 0.12,-0.56 0.16,-0.24 0.48,-0.24 0.28,0 0.4,0.16 0.12,0.16 0.24,0.32 0.28,0.44 0.72,0.96 0.44,0.48 1.04,0.96 0.6,0.44 1.32,0.76 0.76,0.28 1.68,0.28 1.8,0 3.24,-0.84 1.44,-0.84 2.56,-2.28 1.16,-1.48 2,-3.52 0.88,-2.04 1.52,-4.44 0.64,-2.4 1.16,-4.16 0.56,-1.8 1,-3 0.48,-1.4 0.92,-2.4 -2.68,0.76 -4.8,2.08 -0.92,0.56 -1.76,1.32 -0.84,0.72 -1.52,1.68 -0.68,0.92 -1.08,2.08 -0.4,1.16 -0.4,2.56 0,1.28 0.48,1.92 0.48,0.64 0.92,1 0.2,0.2 0.4,0.36 0.24,0.16 0.24,0.4 0,0.52 -0.8,0.52 -0.72,0 -1.72,-0.44 -1,-0.44 -1.92,-1.24 -0.92,-0.8 -1.56,-1.92 -0.64,-1.16 -0.64,-2.56 0,-1.52 0.68,-2.8 0.72,-1.28 1.88,-2.32 1.2,-1.04 2.72,-1.84 1.56,-0.8 3.2,-1.44 1.68,-0.64 3.36,-1.08 1.68,-0.44 3.12,-0.72 0.92,-1.24 1.88,-1.68 0.96,-0.44 1.88,-0.44 z"
         inkscape:connector-curvature="0" />
      <path
         id="path4290"
         style="font-style:normal;font-variant:normal;font-weight:normal;font-stretch:normal;font-family:Milkshake;-inkscape-font-specification:Milkshake;fill:#009246;fill-opacity:1;stroke:none"
         d="m -389.0582,436.98399 q 0.8,0 1.56,-0.52 0.8,-0.52 1.4,-1.2 0.72,-0.72 1.32,-1.72 0.04,-0.12 0.2,-0.28 0.08,-0.08 0.24,-0.16 0.16,-0.12 0.36,-0.12 0.32,0 0.56,0.24 0.28,0.24 0.28,0.56 0,0.16 -0.08,0.32 -0.04,0.12 -0.12,0.28 -0.08,0.16 -0.16,0.36 -0.88,1.4 -1.96,2.48 -0.92,0.92 -2.2,1.68 -1.24,0.76 -2.72,0.76 -0.96,0 -1.96,-0.36 -1,-0.32 -1.84,-0.96 -0.8,-0.64 -1.36,-1.52 -0.52,-0.88 -0.52,-1.92 0,-0.84 0.2,-2.04 0.2,-1.24 0.56,-2.68 0.36,-1.44 0.8,-3.04 0.48,-1.6 1,-3.16 l -1.08,0 q -0.32,0 -0.32,-0.36 0,-0.32 0.36,-0.84 0.4,-0.56 0.84,-0.56 l 0.8,0 q 0.6,-1.64 1.16,-3 0.6,-1.4 1.16,-2.36 0.16,-0.32 0.44,-0.52 0.28,-0.24 0.64,-0.24 0.44,0 0.96,0.28 0.56,0.28 1.04,0.68 0.48,0.36 0.8,0.76 0.32,0.4 0.32,0.68 0,0.28 -0.4,1.28 -0.36,0.96 -0.92,2.44 l 2.68,0 q 0.32,0 0.32,0.36 0,0.16 -0.12,0.4 -0.12,0.24 -0.32,0.48 -0.16,0.2 -0.36,0.36 -0.2,0.16 -0.4,0.16 l -2.48,0 q -0.48,1.32 -1,2.8 -0.48,1.48 -0.88,2.92 -0.4,1.44 -0.68,2.8 -0.24,1.32 -0.24,2.4 0,0.92 0.6,1.52 0.64,0.56 1.52,0.56 z"
         inkscape:connector-curvature="0" />
      <path
         id="path4292"
         style="font-style:normal;font-variant:normal;font-weight:normal;font-stretch:normal;font-family:Milkshake;-inkscape-font-specification:Milkshake;fill:#009246;fill-opacity:1;stroke:none"
         d="m -364.51883,434.74399 q -0.88,1.4 -1.96,2.48 -0.92,0.92 -2.2,1.68 -1.24,0.76 -2.72,0.76 -1.68,0 -2.84,-0.84 -1.16,-0.88 -1.36,-2.56 -0.8,1 -1.72,1.72 -0.8,0.64 -1.8,1.16 -1,0.52 -2.16,0.52 -0.8,0 -1.56,-0.32 -0.72,-0.28 -1.28,-0.84 -0.52,-0.56 -0.84,-1.32 -0.32,-0.76 -0.32,-1.68 0,-2.16 0.8,-4.28 0.84,-2.12 2.16,-3.8 1.32,-1.72 2.96,-2.76 1.64,-1.04 3.28,-1.04 1.2,0 2.04,0.32 0.84,0.28 1.36,0.64 0.6,0.44 0.96,0.92 0.44,0 0.92,0.12 0.52,0.08 0.92,0.32 0.44,0.2 0.72,0.56 0.28,0.36 0.28,0.88 0,0.44 -0.36,1.44 -0.36,1 -0.8,2.24 -0.44,1.2 -0.8,2.52 -0.36,1.28 -0.36,2.28 0,0.48 0.28,0.8 0.32,0.32 0.84,0.32 0.8,0 1.56,-0.52 0.8,-0.52 1.4,-1.2 0.72,-0.72 1.32,-1.72 0.04,-0.12 0.2,-0.28 0.08,-0.08 0.24,-0.16 0.16,-0.12 0.36,-0.12 0.32,0 0.56,0.24 0.28,0.24 0.28,0.56 0,0.16 -0.08,0.32 -0.04,0.12 -0.12,0.28 -0.08,0.16 -0.16,0.36 z m -9.28,-7.08 q 0,-0.88 -0.44,-1.28 -0.4,-0.44 -1,-0.44 -0.88,0 -1.8,0.92 -0.92,0.92 -1.68,2.28 -0.72,1.32 -1.2,2.88 -0.48,1.56 -0.48,2.8 0,1.8 1.16,1.8 0.72,0 1.64,-0.96 0.96,-0.96 1.8,-2.36 0.84,-1.4 1.4,-2.92 0.6,-1.56 0.6,-2.72 z"
         inkscape:connector-curvature="0" />
      <path
         id="path4294"
         style="font-style:normal;font-variant:normal;font-weight:normal;font-stretch:normal;font-family:Milkshake;-inkscape-font-specification:Milkshake;fill:#009246;fill-opacity:1;stroke:none"
         d="m -352.97445,414.66399 q 0,-0.56 -0.48,-0.56 -0.56,0 -1.48,1.24 -0.88,1.24 -1.88,3.24 -0.96,2 -1.92,4.48 -0.96,2.48 -1.56,5 0.68,-0.56 1.48,-1.6 0.84,-1.04 1.64,-2.32 0.8,-1.32 1.56,-2.72 0.76,-1.4 1.32,-2.68 0.6,-1.32 0.96,-2.4 0.36,-1.08 0.36,-1.68 z m -7,25 q -1.2,0 -2.32,-0.4 -1.08,-0.4 -1.92,-1.16 -0.84,-0.8 -1.36,-1.92 -0.48,-1.12 -0.48,-2.52 0,-2 0.44,-4.44 0.48,-2.44 1.32,-4.88 0.84,-2.48 1.92,-4.8 1.12,-2.32 2.44,-4.12 1.32,-1.84 2.72,-2.92 1.44,-1.08 2.88,-1.08 0.68,0 1.28,0.32 0.6,0.32 1.04,0.8 0.48,0.48 0.76,1.08 0.28,0.56 0.28,1.08 0,0.84 -0.48,2.16 -0.44,1.28 -1.2,2.8 -0.76,1.48 -1.8,3.08 -1,1.6 -2.12,3.12 -1.08,1.48 -2.2,2.8 -1.12,1.28 -2.12,2.12 -0.08,0.48 -0.16,1 -0.08,0.44 -0.12,1 -0.04,0.52 -0.04,1.04 0,1.4 0.64,2.28 0.68,0.88 1.92,0.88 0.8,0 1.56,-0.52 0.8,-0.52 1.4,-1.2 0.72,-0.72 1.32,-1.72 0.04,-0.12 0.2,-0.28 0.08,-0.08 0.24,-0.16 0.16,-0.12 0.36,-0.12 0.32,0 0.56,0.24 0.28,0.24 0.28,0.56 0,0.16 -0.08,0.32 -0.04,0.12 -0.12,0.28 -0.08,0.16 -0.16,0.36 -0.88,1.4 -1.96,2.48 -0.92,0.92 -2.2,1.68 -1.24,0.76 -2.72,0.76 z"
         inkscape:connector-curvature="0" />
      <path
         id="path4296"
         style="font-style:normal;font-variant:normal;font-weight:normal;font-stretch:normal;font-family:Milkshake;-inkscape-font-specification:Milkshake;fill:#009246;fill-opacity:1;stroke:none"
         d="m -344.0882,416.22399 q 0,0.8 -0.28,1.56 -0.24,0.72 -0.72,1.32 -0.44,0.56 -1.04,0.92 -0.56,0.32 -1.2,0.32 -0.88,0 -1.52,-0.6 -0.64,-0.6 -0.64,-1.68 0,-0.76 0.28,-1.48 0.28,-0.72 0.72,-1.28 0.48,-0.6 1.08,-0.92 0.6,-0.36 1.28,-0.36 0.88,0 1.44,0.6 0.6,0.6 0.6,1.6 z m -5.76,19.24 q 0,0.68 0.32,1.12 0.36,0.4 0.96,0.4 0.8,0 1.56,-0.52 0.8,-0.52 1.4,-1.2 0.72,-0.72 1.32,-1.72 0.04,-0.12 0.2,-0.28 0.08,-0.08 0.24,-0.16 0.16,-0.12 0.36,-0.12 0.32,0 0.56,0.24 0.28,0.24 0.28,0.56 0,0.16 -0.08,0.32 -0.04,0.12 -0.12,0.28 -0.08,0.16 -0.16,0.36 -0.88,1.4 -1.96,2.48 -0.92,0.92 -2.2,1.68 -1.24,0.76 -2.72,0.76 -2.28,0 -3.68,-1.2 -1.4,-1.24 -1.4,-3.2 0,-1.08 0.36,-2.6 0.36,-1.52 0.84,-3.08 0.48,-1.56 1,-2.96 0.56,-1.4 0.92,-2.24 0.16,-0.32 0.44,-0.52 0.28,-0.24 0.64,-0.24 0.44,0 1,0.28 0.56,0.28 1.04,0.64 0.48,0.36 0.8,0.76 0.32,0.36 0.32,0.6 0,0.92 -0.36,2 -0.36,1.04 -0.8,2.24 -0.4,1.2 -0.76,2.56 -0.32,1.32 -0.32,2.76 z"
         inkscape:connector-curvature="0" />
      <path
         id="path4298"
         style="font-style:normal;font-variant:normal;font-weight:normal;font-stretch:normal;font-family:Milkshake;-inkscape-font-specification:Milkshake;fill:#009246;fill-opacity:1;stroke:none"
         d="m -323.97195,434.74399 q -0.88,1.4 -1.96,2.48 -0.92,0.92 -2.2,1.68 -1.24,0.76 -2.72,0.76 -1.68,0 -2.84,-0.84 -1.16,-0.88 -1.36,-2.56 -0.8,1 -1.72,1.72 -0.8,0.64 -1.8,1.16 -1,0.52 -2.16,0.52 -0.8,0 -1.56,-0.32 -0.72,-0.28 -1.28,-0.84 -0.52,-0.56 -0.84,-1.32 -0.32,-0.76 -0.32,-1.68 0,-2.16 0.8,-4.28 0.84,-2.12 2.16,-3.8 1.32,-1.72 2.96,-2.76 1.64,-1.04 3.28,-1.04 1.2,0 2.04,0.32 0.84,0.28 1.36,0.64 0.6,0.44 0.96,0.92 0.44,0 0.92,0.12 0.52,0.08 0.92,0.32 0.44,0.2 0.72,0.56 0.28,0.36 0.28,0.88 0,0.44 -0.36,1.44 -0.36,1 -0.8,2.24 -0.44,1.2 -0.8,2.52 -0.36,1.28 -0.36,2.28 0,0.48 0.28,0.8 0.32,0.32 0.84,0.32 0.8,0 1.56,-0.52 0.8,-0.52 1.4,-1.2 0.72,-0.72 1.32,-1.72 0.04,-0.12 0.2,-0.28 0.08,-0.08 0.24,-0.16 0.16,-0.12 0.36,-0.12 0.32,0 0.56,0.24 0.28,0.24 0.28,0.56 0,0.16 -0.08,0.32 -0.04,0.12 -0.12,0.28 -0.08,0.16 -0.16,0.36 z m -9.28,-7.08 q 0,-0.88 -0.44,-1.28 -0.4,-0.44 -1,-0.44 -0.88,0 -1.8,0.92 -0.92,0.92 -1.68,2.28 -0.72,1.32 -1.2,2.88 -0.48,1.56 -0.48,2.8 0,1.8 1.16,1.8 0.72,0 1.64,-0.96 0.96,-0.96 1.8,-2.36 0.84,-1.4 1.4,-2.92 0.6,-1.56 0.6,-2.72 z"
         inkscape:connector-curvature="0" />
      <path
         id="path4300"
         style="font-style:normal;font-variant:normal;font-weight:normal;font-stretch:normal;font-family:Milkshake;-inkscape-font-specification:Milkshake;fill:#009246;fill-opacity:1;stroke:none"
         d="m -311.26758,435.46399 q 0,0.68 0.32,1.12 0.36,0.4 0.96,0.4 0.8,0 1.56,-0.52 0.8,-0.52 1.4,-1.2 0.72,-0.72 1.32,-1.72 0.04,-0.12 0.2,-0.28 0.08,-0.08 0.24,-0.16 0.16,-0.12 0.36,-0.12 0.32,0 0.56,0.24 0.28,0.24 0.28,0.56 0,0.16 -0.08,0.32 -0.04,0.12 -0.12,0.28 -0.08,0.16 -0.16,0.36 -0.88,1.4 -1.96,2.48 -0.92,0.92 -2.2,1.68 -1.24,0.76 -2.72,0.76 -2.28,0 -3.68,-1.16 -1.4,-1.2 -1.4,-2.88 0,-1.24 0.32,-2.36 0.32,-1.16 0.68,-2.24 0.4,-1.08 0.72,-2.04 0.32,-1 0.32,-1.92 0,-0.28 -0.24,-0.44 -0.24,-0.2 -0.56,-0.2 -0.92,0 -2,0.88 -1.04,0.84 -2,2.48 -0.92,1.6 -1.56,3.92 -0.6,2.28 -0.6,5.16 0,0.52 -0.24,0.64 -0.2,0.16 -0.64,0.16 -1.6,0 -2.68,-0.6 -1.08,-0.64 -1.08,-1.6 0,-1.68 0.4,-3.52 0.36,-1.88 0.88,-3.6 0.52,-1.76 1.04,-3.24 0.56,-1.48 0.92,-2.32 0.32,-0.76 1.08,-0.76 0.44,0 1.16,0.36 0.72,0.36 1.64,1.8 0.84,-0.72 1.88,-1.28 0.88,-0.48 2,-0.88 1.12,-0.4 2.4,-0.4 0.64,0 1.24,0.32 0.64,0.32 1.12,0.84 0.48,0.48 0.76,1.08 0.28,0.6 0.28,1.2 0,0.92 -0.36,1.96 -0.32,1 -0.72,2.08 -0.36,1.08 -0.72,2.2 -0.32,1.08 -0.32,2.16 z"
         inkscape:connector-curvature="0" />
    </g>
    <g
       id="flowRoot4271"
       style="font-style:normal;font-weight:normal;font-size:48.11693954px;line-height:125%;font-family:sans-serif;letter-spacing:0px;word-spacing:0px;fill:#ffffff;fill-opacity:1;stroke:#000000;stroke-width:1.20292354px;stroke-linecap:butt;stroke-linejoin:miter;stroke-opacity:1"
       transform="matrix(1.7757842,0,0,1.7757842,-240.84999,-543.73773)">
      <path
         id="path4303"
         style="font-style:normal;font-variant:normal;font-weight:normal;font-stretch:normal;font-family:Milkshake;-inkscape-font-specification:Milkshake;stroke-width:1.20292354px"
         d="m 324.58372,843.7006 q -0.0962,0.96234 -0.19247,1.9728 -0.0962,0.8661 -0.14435,1.87656 -0.0481,1.05857 -0.0481,2.02091 0,2.8389 0.62552,3.94559 0.67364,1.10669 1.29916,1.10669 0.43305,0 0.72176,-0.33682 0.33681,-0.2887 0.52928,-0.76987 0.19247,-0.48117 0.2887,-1.10669 0.0962,-0.57741 0.0962,-1.15481 0,-1.53974 -0.52929,-2.93513 -0.48117,-1.39539 -1.05857,-2.40585 -0.72176,-1.20292 -1.58786,-2.21338 z m 11.78865,-27.71536 q 0,-0.96234 -1.01046,-0.96234 -0.67363,0 -1.68409,1.53975 -0.96234,1.49162 -2.11714,3.94559 -1.10669,2.45396 -2.21338,5.58156 -1.10669,3.07949 -2.02091,6.2552 0.76987,-0.5774 1.73221,-1.82844 1.01045,-1.25104 2.02091,-2.79078 1.01045,-1.58786 1.92467,-3.32007 0.96234,-1.78033 1.6841,-3.36819 0.76987,-1.63597 1.20292,-2.98325 0.48117,-1.34727 0.48117,-2.06903 z m 0.14435,23.86601 q -0.48117,0.67363 -1.20292,1.53974 -0.67364,0.81799 -1.6841,1.53974 -0.96233,0.72175 -2.35773,1.25104 -1.34727,0.48117 -3.17571,0.48117 0.76987,0.67364 1.34727,1.63598 0.52929,0.81798 0.96234,2.02091 0.43305,1.25104 0.43305,2.79078 0,0.91422 -0.33682,1.87656 -0.33682,1.01046 -0.96234,1.82844 -0.62552,0.86611 -1.53974,1.3954 -0.91422,0.52928 -2.06903,0.52928 -1.05857,0 -2.30961,-0.43305 -1.25104,-0.38494 -2.30961,-1.34728 -1.05857,-0.96233 -1.78033,-2.55019 -0.72175,-1.53975 -0.72175,-3.84936 0,-3.89747 0.67363,-8.13176 0.62552,-4.28241 1.73221,-8.37235 1.10669,-4.08994 2.59832,-7.74683 1.53974,-3.705 3.27195,-6.44767 1.73221,-2.79078 3.60877,-4.42675 1.87656,-1.63598 3.70501,-1.63598 0.81798,0 1.58785,0.43305 0.81799,0.38494 1.44351,1.05858 0.62552,0.62552 1.01046,1.39539 0.38493,0.72175 0.38493,1.34727 0,1.01046 -0.5774,2.59832 -0.5774,1.58785 -1.58786,3.51253 -0.96234,1.87656 -2.26149,3.94559 -1.25105,2.06903 -2.69455,3.99371 -1.39539,1.87656 -2.88702,3.51253 -1.44351,1.63598 -2.74267,2.69455 -0.38493,1.10669 -0.62552,2.35773 -0.24058,1.25104 -0.33681,2.50208 0.33681,0.43306 0.81798,0.72176 0.38494,0.24058 0.96234,0.48117 0.57741,0.19246 1.34728,0.19246 1.25104,0 2.26149,-0.38493 1.01046,-0.38494 1.82845,-0.96234 0.81798,-0.62552 1.44351,-1.34727 0.67363,-0.76988 1.20292,-1.44351 0.0481,-0.14435 0.24058,-0.33682 0.0962,-0.0962 0.2887,-0.19247 0.19247,-0.14435 0.43306,-0.14435 0.38493,0 0.67363,0.2887 0.33682,0.2887 0.33682,0.67364 0,0.19247 -0.0962,0.38493 -0.0481,0.14436 -0.14435,0.33682 -0.0962,0.19247 -0.19247,0.43306 z"
         inkscape:connector-curvature="0" />
      <path
         id="path4305"
         style="font-style:normal;font-variant:normal;font-weight:normal;font-stretch:normal;font-family:Milkshake;-inkscape-font-specification:Milkshake;stroke-width:1.20292354px"
         d="m 357.91147,839.85125 q -0.81799,1.20292 -2.06903,2.06902 -1.05857,0.81799 -2.64643,1.44351 -1.53975,0.62552 -3.65689,0.62552 -0.86611,0 -1.87656,-0.14435 -1.15481,0.91422 -2.5502,1.44351 -1.39539,0.48117 -2.93513,0.48117 -1.49163,0 -2.88702,-0.52929 -1.34727,-0.52928 -2.40585,-1.44351 -1.01045,-0.91422 -1.63597,-2.16526 -0.57741,-1.25104 -0.57741,-2.64643 0,-3.03137 1.01046,-5.34098 1.05857,-2.35773 2.69455,-3.94559 1.63597,-1.58786 3.60877,-2.40585 1.97279,-0.81798 3.84935,-0.81798 1.49163,0 2.79079,0.48117 1.29915,0.48117 2.21338,1.4435 0.96234,0.91423 1.49162,2.2615 0.5774,1.29916 0.5774,2.93513 0,1.92468 -0.81798,4.04183 -0.76987,2.11714 -2.16527,3.94559 0.19247,0.0481 0.33682,0.0962 0.19247,0 0.43306,0 1.25104,0 2.26149,-0.48117 1.01046,-0.52929 1.78033,-1.15481 0.8661,-0.72175 1.63597,-1.63597 0.0481,-0.14435 0.24059,-0.33682 0.0962,-0.0962 0.2887,-0.19247 0.19247,-0.14435 0.43305,-0.14435 0.38494,0 0.67364,0.2887 0.33682,0.2887 0.33682,0.67364 0,0.19247 -0.0962,0.38493 -0.0481,0.14436 -0.14436,0.33682 -0.0962,0.19247 -0.19246,0.43306 z m -17.56269,0.33681 q 0,1.44351 0.57741,2.35773 0.62552,0.91423 1.73221,0.91423 0.76987,0 1.49162,-0.57741 -0.81799,-0.52928 -0.81799,-1.1548 0,-0.38494 0.24059,-0.81799 0.2887,-0.43305 0.67364,-0.76987 0.38493,-0.33682 0.76987,-0.52929 0.43305,-0.24058 0.72175,-0.24058 0.24059,0 0.52929,0.0962 0.72175,-1.82844 1.10669,-3.84935 0.38493,-2.06903 0.38493,-3.65689 0,-1.63598 -0.52928,-2.30962 -0.52929,-0.72175 -1.34728,-0.72175 -0.81799,0 -1.78033,0.86611 -0.96233,0.81798 -1.82844,2.35773 -0.81799,1.49162 -1.39539,3.56065 -0.52929,2.02091 -0.52929,4.47487 z"
         inkscape:connector-curvature="0" />
      <path
         id="path4307"
         style="font-style:normal;font-variant:normal;font-weight:normal;font-stretch:normal;font-family:Milkshake;-inkscape-font-specification:Milkshake;stroke-width:1.20292354px"
         d="m 379.33854,839.85125 q -0.81799,1.20292 -2.06903,2.06902 -1.05857,0.81799 -2.64643,1.44351 -1.53974,0.62552 -3.65689,0.62552 -0.8661,0 -1.87656,-0.14435 -1.1548,0.91422 -2.5502,1.44351 -1.39539,0.48117 -2.93513,0.48117 -1.49162,0 -2.88701,-0.52929 -1.34728,-0.52928 -2.40585,-1.44351 -1.01046,-0.91422 -1.63598,-2.16526 -0.5774,-1.25104 -0.5774,-2.64643 0,-3.03137 1.01045,-5.34098 1.05858,-2.35773 2.69455,-3.94559 1.63598,-1.58786 3.60877,-2.40585 1.9728,-0.81798 3.84936,-0.81798 1.49162,0 2.79078,0.48117 1.29916,0.48117 2.21338,1.4435 0.96234,0.91423 1.49163,2.2615 0.5774,1.29916 0.5774,2.93513 0,1.92468 -0.81799,4.04183 -0.76987,2.11714 -2.16526,3.94559 0.19247,0.0481 0.33682,0.0962 0.19247,0 0.43305,0 1.25104,0 2.2615,-0.48117 1.01045,-0.52929 1.78032,-1.15481 0.86611,-0.72175 1.63598,-1.63597 0.0481,-0.14435 0.24058,-0.33682 0.0962,-0.0962 0.28871,-0.19247 0.19246,-0.14435 0.43305,-0.14435 0.38493,0 0.67363,0.2887 0.33682,0.2887 0.33682,0.67364 0,0.19247 -0.0962,0.38493 -0.0481,0.14436 -0.14435,0.33682 -0.0962,0.19247 -0.19247,0.43306 z m -17.56268,0.33681 q 0,1.44351 0.5774,2.35773 0.62552,0.91423 1.73221,0.91423 0.76987,0 1.49163,-0.57741 -0.81799,-0.52928 -0.81799,-1.1548 0,-0.38494 0.24058,-0.81799 0.2887,-0.43305 0.67364,-0.76987 0.38494,-0.33682 0.76987,-0.52929 0.43305,-0.24058 0.72176,-0.24058 0.24058,0 0.52928,0.0962 0.72176,-1.82844 1.10669,-3.84935 0.38494,-2.06903 0.38494,-3.65689 0,-1.63598 -0.52929,-2.30962 -0.52929,-0.72175 -1.34727,-0.72175 -0.81799,0 -1.78033,0.86611 -0.96234,0.81798 -1.82844,2.35773 -0.81799,1.49162 -1.3954,3.56065 -0.52928,2.02091 -0.52928,4.47487 z"
         inkscape:connector-curvature="0" />
      <path
         id="path4309"
         style="font-style:normal;font-variant:normal;font-weight:normal;font-stretch:normal;font-family:Milkshake;-inkscape-font-specification:Milkshake;stroke-width:1.20292354px"
         d="m 391.38281,829.93916 q -0.19247,-0.19247 -0.38493,-0.38494 -0.19247,-0.14435 -0.43306,-0.24058 -0.24058,-0.14435 -0.52928,-0.14435 -1.15481,0 -2.35773,1.10668 -1.15481,1.10669 -2.11715,2.74267 -0.91422,1.58786 -1.49162,3.4163 -0.57741,1.82845 -0.57741,3.32007 0,1.29916 0.48117,2.02091 0.48117,0.72176 1.29916,0.72176 0.76987,0 1.68409,-0.57741 0.91423,-0.62552 1.73221,-1.39539 0.91423,-0.8661 1.87656,-2.02091 0.0481,-2.16526 0.24059,-4.23429 0.24058,-2.11714 0.5774,-4.33052 z m 5.14851,2.02091 q 2.11715,-3.46442 3.80124,-6.64014 0.72176,-1.34727 1.39539,-2.74267 0.72176,-1.4435 1.25104,-2.74266 0.52929,-1.29916 0.86611,-2.40585 0.33682,-1.10669 0.33682,-1.92468 0,-0.81798 -0.67364,-0.81798 -0.62552,0 -1.53974,1.53974 -0.91422,1.49162 -1.92468,3.94559 -1.01045,2.45396 -1.97279,5.53345 -0.91423,3.07948 -1.53975,6.2552 z m 0.48117,13.80956 q -1.34727,0 -2.45396,-0.48117 -1.10669,-0.52929 -1.92468,-1.25104 -0.76987,-0.72175 -1.25104,-1.53974 -0.43305,-0.81799 -0.48117,-1.44351 -1.1548,1.34727 -2.45396,2.35773 -1.10669,0.91422 -2.5502,1.63598 -1.39539,0.72175 -2.88702,0.72175 -1.01045,0 -2.02091,-0.43305 -0.96234,-0.43306 -1.73221,-1.20293 -0.76987,-0.76987 -1.25104,-1.87656 -0.48117,-1.10669 -0.48117,-2.40584 0,-2.93514 1.15481,-5.3891 1.15481,-2.50208 2.88702,-4.23429 1.73221,-1.78033 3.705,-2.74267 2.02091,-1.01045 3.70501,-1.01045 0.67363,0 1.25104,0.14435 0.5774,0.0962 0.96233,0.24058 0.48117,0.19247 0.81799,0.38494 0.81799,-2.93514 1.9728,-5.72592 1.1548,-2.79078 2.50208,-4.95604 1.39539,-2.16527 2.93513,-3.46442 1.53974,-1.29916 3.22384,-1.29916 0.72175,0 1.4435,0.38494 0.76988,0.38493 1.34728,1.01045 0.62552,0.62552 1.01045,1.44351 0.38494,0.81799 0.38494,1.63598 0,0.8661 -0.48117,2.16526 -0.43305,1.29916 -1.20292,2.8389 -0.72176,1.49162 -1.6841,3.1276 -0.91422,1.63597 -1.92467,3.22383 -2.30962,3.70501 -5.29287,7.89118 -0.0962,0.62552 -0.14435,1.25104 -0.0481,0.5774 -0.0481,1.15481 0,2.02091 0.62552,3.32007 0.62552,1.29915 1.97279,1.29915 0.96234,0 1.87656,-0.62552 0.91422,-0.62552 1.63598,-1.4435 0.8661,-0.86611 1.58786,-2.06903 0.0481,-0.14435 0.24058,-0.33682 0.0962,-0.0962 0.2887,-0.19247 0.19247,-0.14435 0.43305,-0.14435 0.38494,0 0.67364,0.2887 0.33682,0.2887 0.33682,0.67364 0,0.19247 -0.0962,0.38493 -0.0481,0.14436 -0.14435,0.33682 -0.0962,0.19247 -0.19247,0.43306 -1.05858,1.68409 -2.35773,2.98325 -1.10669,1.10669 -2.64643,2.02091 -1.49163,0.91422 -3.27196,0.91422 z"
         inkscape:connector-curvature="0" />
    </g>
    <g
       id="flowRoot4279"
       style="font-style:normal;font-weight:normal;font-size:47.51416779px;line-height:125%;font-family:sans-serif;letter-spacing:0px;word-spacing:0px;fill:#ce2b37;fill-opacity:1;stroke:none;stroke-width:1.18785417px;stroke-linecap:butt;stroke-linejoin:miter;stroke-opacity:1"
       transform="matrix(1.7757842,0,0,1.7757842,-311.88136,-543.73773)">
      <path
         id="path4312"
         style="font-style:normal;font-variant:normal;font-weight:normal;font-stretch:normal;font-family:Milkshake;-inkscape-font-specification:Milkshake;fill:#ce2b37;fill-opacity:1;stroke:none;stroke-width:1.18785417px"
         d="m 474.97265,842.27216 q 0.95028,0 1.85305,-0.61768 0.95029,-0.61769 1.663,-1.42543 0.85525,-0.85525 1.56797,-2.04311 0.0475,-0.14254 0.23757,-0.3326 0.095,-0.095 0.28508,-0.19005 0.19006,-0.14254 0.42763,-0.14254 0.38011,0 0.6652,0.28508 0.3326,0.28509 0.3326,0.6652 0,0.19006 -0.095,0.38011 -0.0475,0.14254 -0.14254,0.3326 -0.095,0.19006 -0.19006,0.42763 -1.04531,1.66299 -2.32819,2.94588 -1.09283,1.09282 -2.61328,1.99559 -1.47294,0.90277 -3.23097,0.90277 -1.14034,0 -2.32819,-0.42763 -1.18786,-0.38011 -2.18565,-1.14034 -0.95029,-0.76022 -1.61548,-1.80553 -0.61769,-1.04532 -0.61769,-2.28068 0,-0.9978 0.23757,-2.42323 0.23757,-1.47294 0.6652,-3.18345 0.42763,-1.71051 0.95028,-3.61107 0.57017,-1.90057 1.18786,-3.75362 l -1.28288,0 q -0.38012,0 -0.38012,-0.42763 0,-0.38011 0.42763,-0.9978 0.47514,-0.6652 0.9978,-0.6652 l 0.95028,0 q 0.71271,-1.94808 1.37791,-3.56356 0.71271,-1.66299 1.37791,-2.80333 0.19006,-0.38012 0.52266,-0.61769 0.3326,-0.28508 0.76022,-0.28508 0.52266,0 1.14034,0.3326 0.6652,0.33259 1.23537,0.80774 0.57017,0.42762 0.95029,0.90277 0.38011,0.47514 0.38011,0.80774 0,0.3326 -0.47514,1.52045 -0.42763,1.14034 -1.09283,2.89836 l 3.18345,0 q 0.38011,0 0.38011,0.42763 0,0.19006 -0.14254,0.47514 -0.14254,0.28509 -0.38011,0.57017 -0.19006,0.23757 -0.42763,0.42763 -0.23757,0.19006 -0.47514,0.19006 l -2.94588,0 q -0.57017,1.56797 -1.18785,3.32599 -0.57017,1.75802 -1.04531,3.46853 -0.47515,1.71051 -0.80775,3.326 -0.28508,1.56796 -0.28508,2.85085 0,1.09282 0.71271,1.80553 0.76023,0.6652 1.80554,0.6652 z"
         inkscape:connector-curvature="0" />
      <path
         id="path4314"
         style="font-style:normal;font-variant:normal;font-weight:normal;font-stretch:normal;font-family:Milkshake;-inkscape-font-specification:Milkshake;fill:#ce2b37;fill-opacity:1;stroke:none;stroke-width:1.18785417px"
         d="m 492.05325,840.60917 q 0,0.80774 0.42763,1.23536 0.42763,0.42763 1.14034,0.42763 0.95028,0 1.85305,-0.61768 0.95028,-0.61769 1.663,-1.42543 0.85525,-0.85525 1.56796,-2.04311 0.0475,-0.14254 0.23758,-0.3326 0.095,-0.095 0.28508,-0.19005 0.19006,-0.14254 0.42763,-0.14254 0.38011,0 0.6652,0.28508 0.3326,0.28509 0.3326,0.6652 0,0.19006 -0.095,0.38011 -0.0475,0.14254 -0.14255,0.3326 -0.095,0.19006 -0.19005,0.42763 -1.04531,1.66299 -2.3282,2.94588 -1.09282,1.09282 -2.61328,1.99559 -1.47293,0.90277 -3.23096,0.90277 -1.37791,0 -2.47074,-0.38011 -1.09282,-0.38012 -1.90056,-0.9978 -0.80774,-0.6652 -1.23537,-1.52045 -0.42763,-0.85526 -0.42763,-1.85306 0,-1.56796 0.47514,-2.94587 0.47514,-1.37791 0.9978,-2.51825 0.57017,-1.14034 1.04531,-1.9956 0.47514,-0.90277 0.47514,-1.47294 0,-0.38011 -0.47514,-0.57017 -0.42762,-0.19006 -0.95028,-0.3326 -0.61769,-0.14254 -1.42543,-0.23757 -1.37791,3.46854 -2.61328,5.7017 -1.23536,2.18565 -1.99559,3.27848 -0.095,0.14254 -0.38011,0.42763 -0.23757,0.28508 -0.6652,0.28508 -0.38012,0 -0.6652,-0.28508 -0.3326,-0.3326 -0.3326,-0.71272 0,-0.3326 0.23757,-0.61768 0.19006,-0.3326 0.28509,-0.52266 0.66519,-0.95028 1.85305,-2.99339 1.23537,-2.09062 2.28068,-5.46413 -0.47514,-0.3326 -0.80774,-0.85525 -0.28509,-0.42763 -0.52266,-1.09283 -0.23757,-0.6652 -0.23757,-1.56797 0,-0.71271 0.23757,-1.33039 0.28509,-0.6652 0.71271,-1.14034 0.42763,-0.47514 0.90277,-0.76023 0.47515,-0.28508 0.90277,-0.28508 0.47514,0 0.9978,0.28508 0.52266,0.23757 0.95028,0.61768 0.42763,0.3326 0.71272,0.80775 0.28508,0.42762 0.28508,0.76022 0,0.95029 -0.3326,1.56797 -0.28508,0.61768 -0.28508,1.18785 0,0.52266 0.57017,0.76023 0.57017,0.23757 1.42542,0.23757 0.80774,0 1.3304,-0.095 0.57017,-0.095 0.9978,-0.19005 0.42762,-0.14255 0.80774,-0.23757 0.38011,-0.095 0.80774,-0.095 0.85525,0 1.37791,0.6652 0.57017,0.66519 0.57017,1.61548 0,0.80774 -0.57017,1.94808 -0.52266,1.09282 -1.18785,2.42322 -0.6652,1.3304 -1.23537,2.80334 -0.52266,1.42542 -0.52266,2.85085 z"
         inkscape:connector-curvature="0" />
      <path
         id="path4316"
         style="font-style:normal;font-variant:normal;font-weight:normal;font-stretch:normal;font-family:Milkshake;-inkscape-font-specification:Milkshake;fill:#ce2b37;fill-opacity:1;stroke:none;stroke-width:1.18785417px"
         d="m 515.26763,840.46662 q 0,0.80774 0.38012,1.3304 0.42762,0.47514 1.14034,0.47514 0.95028,0 1.85305,-0.61768 0.95028,-0.61769 1.66299,-1.42543 0.85526,-0.85525 1.56797,-2.04311 0.0475,-0.14254 0.23757,-0.3326 0.095,-0.095 0.28509,-0.19005 0.19005,-0.14254 0.42763,-0.14254 0.38011,0 0.66519,0.28508 0.3326,0.28509 0.3326,0.6652 0,0.19006 -0.095,0.38011 -0.0475,0.14254 -0.14254,0.3326 -0.095,0.19006 -0.19005,0.42763 -1.04532,1.66299 -2.3282,2.94588 -1.09282,1.09282 -2.61328,1.99559 -1.47294,0.90277 -3.23096,0.90277 -1.37791,0 -2.37571,-0.3326 -0.95028,-0.28508 -1.663,-0.76022 -0.66519,-0.52266 -1.09282,-1.14034 -0.42763,-0.6652 -0.61769,-1.3304 -0.57017,0.6652 -1.33039,1.3304 -0.71271,0.61768 -1.56797,1.14034 -0.85525,0.47514 -1.80554,0.76022 -0.90277,0.3326 -1.80554,0.3326 -0.80774,0 -1.71051,-0.38011 -0.85525,-0.3326 -1.56796,-0.95029 -0.71272,-0.61768 -1.18786,-1.47293 -0.47514,-0.85526 -0.47514,-1.80554 0,-1.28289 0.42763,-3.18345 0.42762,-1.90057 0.99779,-3.84865 0.57017,-1.99559 1.18786,-3.75362 0.6652,-1.75802 1.09283,-2.75582 0.19005,-0.38011 0.52265,-0.61768 0.3326,-0.28509 0.76023,-0.28509 0.52265,0 1.18785,0.3326 0.6652,0.3326 1.23537,0.76023 0.57017,0.42762 0.95028,0.90277 0.38012,0.42762 0.38012,0.71271 0,1.09282 -0.47514,2.42322 -0.47515,1.3304 -1.09283,2.89836 -0.57017,1.52046 -1.04531,3.23097 -0.47514,1.66299 -0.47514,3.3735 0,0.57017 0.28508,0.9978 0.28509,0.42763 0.80774,0.42763 0.57017,0 1.18786,-0.28509 0.61768,-0.3326 1.18785,-0.80774 0.57017,-0.52265 1.04531,-1.09282 0.47514,-0.61769 0.76023,-1.18786 0.38011,-0.76022 0.90277,-2.32819 0.52265,-1.56797 1.04531,-3.32599 0.57017,-1.75803 1.09283,-3.42102 0.52265,-1.71051 0.95028,-2.70831 0.19006,-0.38011 0.52265,-0.61768 0.3326,-0.28509 0.80775,-0.28509 0.52265,0 1.14034,0.3326 0.66519,0.3326 1.23536,0.76023 0.57017,0.42762 0.95029,0.90277 0.38011,0.42762 0.38011,0.71271 0,1.09282 -0.42763,2.37571 -0.42762,1.23536 -0.95028,2.66079 -0.47514,1.42542 -0.90277,3.04091 -0.42763,1.56796 -0.42763,3.27847 z"
         inkscape:connector-curvature="0" />
      <path
         id="path4318"
         style="font-style:normal;font-variant:normal;font-weight:normal;font-stretch:normal;font-family:Milkshake;-inkscape-font-specification:Milkshake;fill:#ce2b37;fill-opacity:1;stroke:none;stroke-width:1.18785417px"
         d="m 540.98616,839.61137 q -1.23537,1.66299 -2.80333,2.94588 -1.37791,1.09282 -3.37351,1.99559 -1.94808,0.90277 -4.51384,0.90277 -1.52046,0 -3.08843,-0.38011 -1.52045,-0.38012 -2.75582,-1.23537 -1.23537,-0.85526 -1.99559,-2.23317 -0.76023,-1.37791 -0.76023,-3.3735 0,-2.37571 0.95028,-4.51385 0.9978,-2.18565 2.51826,-3.80113 1.56796,-1.61548 3.46853,-2.56577 1.90057,-0.95028 3.7061,-0.95028 1.28289,0 2.28068,0.42763 0.9978,0.38011 1.663,1.04531 0.71271,0.6652 1.09283,1.52045 0.38011,0.80774 0.38011,1.61548 0,0.61769 -0.28509,1.28289 -0.23757,0.61768 -0.66519,1.14034 -0.42763,0.52265 -0.95029,0.85525 -0.47514,0.3326 -0.95028,0.3326 -0.95028,0 -1.71051,-0.57017 -0.71271,-0.61768 -0.71271,-1.42542 0,-0.61769 0.28508,-0.9978 0.28509,-0.38011 0.61769,-0.6652 0.38011,-0.3326 0.66519,-0.57017 0.3326,-0.28508 0.3326,-0.6652 0,-0.38011 -0.42762,-0.6652 -0.38012,-0.3326 -0.95029,-0.3326 -1.04531,0 -2.04311,0.80775 -0.95028,0.76022 -1.71051,2.0431 -0.76022,1.28289 -1.23536,2.89837 -0.47515,1.56797 -0.47515,3.18345 0,2.47073 1.3304,3.65859 1.37791,1.18785 3.37351,1.18785 1.61548,0 2.94587,-0.6652 1.3304,-0.66519 2.28068,-1.47293 1.14034,-0.95029 1.9956,-2.18566 0.095,-0.14254 0.28508,-0.3326 0.14255,-0.095 0.3326,-0.19005 0.19006,-0.14254 0.42763,-0.14254 0.42763,0 0.71271,0.28508 0.28509,0.28509 0.28509,0.6652 0,0.19006 -0.095,0.38011 -0.095,0.14254 -0.19006,0.3326 -0.14254,0.19006 -0.23757,0.42763 z"
         inkscape:connector-curvature="0" />
      <path
         id="path4320"
         style="font-style:normal;font-variant:normal;font-weight:normal;font-stretch:normal;font-family:Milkshake;-inkscape-font-specification:Milkshake;fill:#ce2b37;fill-opacity:1;stroke:none;stroke-width:1.18785417px"
         d="m 563.08693,839.61137 q -1.09283,1.66299 -2.37571,2.94588 -1.09283,1.09282 -2.61328,1.99559 -1.47294,0.90277 -3.18345,0.90277 -1.28288,0 -2.80333,-0.76023 -1.52046,-0.80774 -2.85085,-1.94808 -1.28289,-1.18785 -2.18566,-2.51825 -0.85525,-1.33039 -0.85525,-2.42322 0,-0.47514 1.04531,-1.04531 1.09283,-0.61769 2.3282,-1.42543 1.28288,-0.80774 2.32819,-1.85305 1.09283,-1.04531 1.09283,-2.47074 0,-1.33039 -1.09283,-1.33039 -1.28288,0 -2.66079,1.04531 -1.3304,1.04531 -2.47074,2.99339 -1.14034,1.90057 -1.85305,4.65639 -0.71272,2.70831 -0.71272,6.12933 0,0.42763 -0.19005,0.6652 -0.14254,0.28508 -0.6652,0.28508 -0.47514,0 -1.28288,-0.14254 -0.76023,-0.095 -1.52046,-0.38011 -0.76022,-0.28509 -1.28288,-0.76023 -0.57017,-0.47514 -0.57017,-1.23537 0,-2.09062 0.52266,-5.22656 0.52265,-3.13593 1.52045,-6.55695 0.9978,-3.46854 2.37571,-6.88956 1.42542,-3.46853 3.13593,-6.17684 1.71051,-2.75582 3.70611,-4.46633 1.99559,-1.71051 4.22876,-1.71051 0.76023,0 1.52045,0.42763 0.76023,0.38011 1.37791,1.04531 0.61769,0.61768 0.95029,1.37791 0.38011,0.71271 0.38011,1.3304 0,0.99779 -0.52266,2.23316 -0.47514,1.18786 -1.23536,2.47074 -0.71272,1.23537 -1.56797,2.42322 -0.85526,1.18786 -1.61548,2.13814 -0.76023,0.90277 -1.28289,1.52045 -0.52265,0.57017 -0.57017,0.61769 0.0475,-0.0475 0.42763,-0.19006 0.38012,-0.19006 0.90277,-0.38011 0.57017,-0.19006 1.28288,-0.3326 0.71272,-0.19006 1.47294,-0.19006 1.23537,0 2.18565,1.09283 0.9978,1.09282 0.9978,2.56576 0,1.37791 -1.18785,2.56577 -1.18786,1.18785 -2.61328,2.13813 -1.663,1.09283 -3.75362,2.04311 0,0.38012 0.42763,1.09283 0.47514,0.71271 1.23537,1.47294 0.76022,0.76022 1.75802,1.33039 1.04531,0.52266 2.13814,0.52266 1.04531,0 1.90056,-0.47514 0.85526,-0.47514 1.47294,-1.04531 0.71272,-0.6652 1.28289,-1.52046 0.0475,-0.14254 0.23757,-0.3326 0.095,-0.095 0.28508,-0.19005 0.19006,-0.14254 0.42763,-0.14254 0.38011,0 0.6652,0.28508 0.3326,0.28509 0.3326,0.6652 0,0.19006 -0.095,0.38011 -0.0475,0.14254 -0.14254,0.3326 -0.095,0.19006 -0.19006,0.42763 z m -6.98458,-23.56703 q 0,-0.95028 -0.85526,-0.95028 -0.6652,0 -1.61548,1.04531 -0.90277,1.04531 -1.9956,2.94588 -1.04531,1.90057 -2.23316,4.56136 -1.14034,2.61328 -2.28068,5.74921 0.76023,-0.71271 1.71051,-1.75802 0.9978,-1.04531 1.99559,-2.28068 0.9978,-1.28288 1.94808,-2.61328 0.95029,-1.3304 1.663,-2.56577 0.76023,-1.23536 1.18785,-2.32819 0.47515,-1.09283 0.47515,-1.80554 z"
         inkscape:connector-curvature="0" />
    </g>
    <rect
       style="fill:#e28228;fill-opacity:1;stroke:none;stroke-width:0.91299999;stroke-miterlimit:4;stroke-dasharray:none;stroke-opacity:1"
       id="rect4248"
       width="48.48732"
       height="42.931484"
       x="9.0913725"
       y="665.72632" />
    <rect
       y="665.72632"
       x="247.48737"
       height="42.931484"
       width="48.48732"
       id="rect4250"
       style="fill:#f0dd8a;fill-opacity:1;stroke:none;stroke-width:0.91299999;stroke-miterlimit:4;stroke-dasharray:none;stroke-opacity:1" />
    <rect
       style="fill:#e7c73c;fill-opacity:1;stroke:none;stroke-width:0.91299999;stroke-miterlimit:4;stroke-dasharray:none;stroke-opacity:1"
       id="rect4252"
       width="48.48732"
       height="42.931484"
       x="68.690369"
       y="665.72632" />
    <rect
       y="665.72632"
       x="128.28937"
       height="42.931484"
       width="48.48732"
       id="rect4254"
       style="fill:#262d35;fill-opacity:1;stroke:none;stroke-width:0.91299999;stroke-miterlimit:4;stroke-dasharray:none;stroke-opacity:1" />
    <rect
       style="fill:#ecaf76;fill-opacity:1;stroke:none;stroke-width:0.91299999;stroke-miterlimit:4;stroke-dasharray:none;stroke-opacity:1"
       id="rect4256"
       width="48.48732"
       height="42.931484"
       x="187.88837"
       y="665.72632" />
    <flowRoot
       xml:space="preserve"
       id="flowRoot4270"
       style="font-style:normal;font-weight:normal;font-size:40px;line-height:125%;font-family:sans-serif;letter-spacing:0px;word-spacing:0px;fill:#262d35;fill-opacity:1;stroke:none;stroke-width:1px;stroke-linecap:butt;stroke-linejoin:miter;stroke-opacity:1"
       transform="translate(-1256.8277,598.2554)"><flowRegion
         id="flowRegion4272"><rect
           id="rect4274"
           width="255.5686"
           height="286.88333"
           x="769.73621"
           y="572.53973"
           style="fill:#262d35;fill-opacity:1" /></flowRegion><flowPara
         id="flowPara4276"
         style="font-size:17.5px;fill:#262d35;fill-opacity:1">If you are looking for authentic Italian street food , you have come to the right place.</flowPara><flowPara
         style="font-size:17.5px;fill:#262d35;fill-opacity:1"
         id="flowPara4278">Italy certainly has many things to offer to travellers but one of the memories tourists have more impressed in their mind when they go back home is street food.</flowPara></flowRoot>    <flowRoot
       transform="matrix(0.66832231,0,0,0.66832231,-1406.7868,-137.25449)"
       style="font-style:normal;font-weight:normal;font-size:40px;line-height:125%;font-family:sans-serif;letter-spacing:0px;word-spacing:0px;fill:#e28228;fill-opacity:1;stroke:none;stroke-width:1px;stroke-linecap:butt;stroke-linejoin:miter;stroke-opacity:1"
       id="flowRoot4280"
       xml:space="preserve"><flowRegion
         id="flowRegion4282"><rect
           style="fill:#e28228;fill-opacity:1"
           y="572.53973"
           x="769.73621"
           height="286.88333"
           width="255.5686"
           id="rect4284" /></flowRegion><flowPara
         style="font-size:17.5px;fill:#e28228;fill-opacity:1"
         id="flowPara4286">If you are looking for authentic Italian street food , you have come to the right place.</flowPara><flowPara
         id="flowPara4288"
         style="font-size:17.5px;fill:#e28228;fill-opacity:1">Italy certainly has many things to offer to travellers but one of the memories tourists have more impressed in their mind when they go back home is street food.</flowPara></flowRoot>    <flowRoot
       xml:space="preserve"
       id="flowRoot4290"
       style="font-style:normal;font-weight:normal;font-size:40px;line-height:125%;font-family:sans-serif;letter-spacing:0px;word-spacing:0px;fill:#f0dd8a;fill-opacity:1;stroke:none;stroke-width:1px;stroke-linecap:butt;stroke-linejoin:miter;stroke-opacity:1"
       transform="matrix(0.66832231,0,0,0.66832231,-1220.5894,-134.1072)"><flowRegion
         id="flowRegion4292"><rect
           id="rect4294"
           width="255.5686"
           height="286.88333"
           x="769.73621"
           y="572.53973"
           style="fill:#f0dd8a;fill-opacity:1" /></flowRegion><flowPara
         id="flowPara4296"
         style="font-size:17.5px;fill:#f0dd8a;fill-opacity:1">If you are looking for authentic Italian street food , you have come to the right place.</flowPara><flowPara
         style="font-size:17.5px;fill:#f0dd8a;fill-opacity:1"
         id="flowPara4298">Italy certainly has many things to offer to travellers but one of the memories tourists have more impressed in their mind when they go back home is street food.</flowPara></flowRoot>    <flowRoot
       transform="matrix(0.66832231,0,0,0.66832231,-1006.1369,-121.81133)"
       style="font-style:normal;font-weight:normal;font-size:40px;line-height:125%;font-family:sans-serif;letter-spacing:0px;word-spacing:0px;fill:#e7c73c;fill-opacity:1;stroke:none;stroke-width:1px;stroke-linecap:butt;stroke-linejoin:miter;stroke-opacity:1"
       id="flowRoot4300"
       xml:space="preserve"><flowRegion
         id="flowRegion4302"><rect
           style="fill:#e7c73c;fill-opacity:1"
           y="572.53973"
           x="769.73621"
           height="286.88333"
           width="255.5686"
           id="rect4304" /></flowRegion><flowPara
         style="font-size:17.5px;fill:#e7c73c;fill-opacity:1"
         id="flowPara4306">If you are looking for authentic Italian street food , you have come to the right place.</flowPara><flowPara
         id="flowPara4308"
         style="font-size:17.5px;fill:#e7c73c;fill-opacity:1">Italy certainly has many things to offer to travellers but one of the memories tourists have more impressed in their mind when they go back home is street food.</flowPara></flowRoot>    <flowRoot
       transform="translate(190.31515,769.68398)"
       style="font-style:normal;font-weight:normal;font-size:40px;line-height:125%;font-family:sans-serif;letter-spacing:0px;word-spacing:0px;fill:#262d35;fill-opacity:1;stroke:none;stroke-width:1px;stroke-linecap:butt;stroke-linejoin:miter;stroke-opacity:1"
       id="flowRoot4310"
       xml:space="preserve"><flowRegion
         id="flowRegion4312"><rect
           style="fill:#262d35;fill-opacity:1"
           y="572.53973"
           x="769.73621"
           height="286.88333"
           width="255.5686"
           id="rect4314" /></flowRegion><flowPara
         style="font-size:17.5px;fill:#262d35;fill-opacity:1"
         id="flowPara4316">If you are looking for authentic Italian street food , you have come to the right place.</flowPara><flowPara
         id="flowPara4318"
         style="font-size:17.5px;fill:#262d35;fill-opacity:1">Italy certainly has many things to offer to travellers but one of the memories tourists have more impressed in their mind when they go back home is street food.</flowPara></flowRoot>    <flowRoot
       xml:space="preserve"
       id="flowRoot4322"
       style="font-style:normal;font-weight:normal;font-size:40px;line-height:125%;font-family:sans-serif;letter-spacing:0px;word-spacing:0px;fill:#262d35;fill-opacity:1;stroke:none;stroke-width:1px;stroke-linecap:butt;stroke-linejoin:miter;stroke-opacity:1"
       transform="translate(128.88658,221.11256)"><flowRegion
         id="flowRegion4324"><rect
           id="rect4326"
           width="255.5686"
           height="286.88333"
           x="769.73621"
           y="572.53973"
           style="fill:#262d35;fill-opacity:1" /></flowRegion><flowPara
         id="flowPara4328"
         style="font-size:17.5px;fill:#262d35;fill-opacity:1">If you are looking for authentic Italian street food , you have come to the right place.</flowPara><flowPara
         style="font-size:17.5px;fill:#262d35;fill-opacity:1"
         id="flowPara4330">Italy certainly has many things to offer to travellers but one of the memories tourists have more impressed in their mind when they go back home is street food.</flowPara></flowRoot>    <rect
       style="fill:#e28228;fill-opacity:1;stroke:none;stroke-width:0.91299999;stroke-miterlimit:4;stroke-dasharray:none;stroke-opacity:1"
       id="rect4332"
       width="138.51968"
       height="48.98505"
       x="-661.50024"
       y="419.3981" />
    <rect
       style="fill:#ecaf76;fill-opacity:1;stroke:none;stroke-width:0.91299999;stroke-miterlimit:4;stroke-dasharray:none;stroke-opacity:1"
       id="rect4334"
       width="94.881004"
       height="29.650227"
       x="-866.8186"
       y="423.44385" />
    <rect
       style="fill:#e7c73c;fill-opacity:1;stroke:none;stroke-width:0.91299999;stroke-miterlimit:4;stroke-dasharray:none;stroke-opacity:1"
       id="rect4337"
       width="92.72197"
       height="36.497261"
       x="-413.70081"
       y="424.29303" />
    <rect
       y="969.0766"
       x="-419.45834"
       height="65.172256"
       width="144.24667"
       id="rect4339"
       style="fill:#262d35;fill-opacity:1;stroke:none;stroke-width:0.91299999;stroke-miterlimit:4;stroke-dasharray:none;stroke-opacity:1" />
    <rect
       y="580.54211"
       x="679.58154"
       height="140.91628"
       width="717.20831"
       id="rect4341"
       style="fill:#f0dd8a;fill-opacity:1;stroke:none;stroke-width:0.91299999;stroke-miterlimit:4;stroke-dasharray:none;stroke-opacity:1" />
    <rect
       y="220.914"
       x="-921.96301"
       height="42.931484"
       width="129.91589"
       id="rect4343"
       style="fill:#e28228;fill-opacity:1;stroke:none;stroke-width:0.91299999;stroke-miterlimit:4;stroke-dasharray:none;stroke-opacity:1"
       transform="matrix(0.99114229,0.13280422,-0.13280422,0.99114229,0,0)" />
    <rect
       y="964.91492"
       x="-580.41327"
       height="54.610268"
       width="138.7384"
       id="rect4345"
       style="fill:#e7c73c;fill-opacity:1;stroke:none;stroke-width:0.91299999;stroke-miterlimit:4;stroke-dasharray:none;stroke-opacity:1" />
    <rect
       style="fill:#ecaf76;fill-opacity:1;stroke:none;stroke-width:0.91299999;stroke-miterlimit:4;stroke-dasharray:none;stroke-opacity:1"
       id="rect4349"
       width="144.82607"
       height="51.508015"
       x="-810.46637"
       y="2.5285068"
       transform="matrix(0.9900459,-0.14074488,0.14074488,0.9900459,0,0)" />
    <rect
       transform="matrix(0.97525785,0.2210704,-0.2210704,0.97525785,0,0)"
       style="fill:#e28228;fill-opacity:1;stroke:none;stroke-width:0.91299999;stroke-miterlimit:4;stroke-dasharray:none;stroke-opacity:1"
       id="rect4355"
       width="129.91589"
       height="42.931484"
       x="-591.13855"
       y="237.79225" />
    <rect
       style="fill:#e7c73c;fill-opacity:1;stroke:none;stroke-width:0.91299999;stroke-miterlimit:4;stroke-dasharray:none;stroke-opacity:1"
       id="rect4357"
       width="138.7384"
       height="54.610268"
       x="-454.04367"
       y="153.04538"
       transform="matrix(0.99237741,0.12323585,-0.12323585,0.99237741,0,0)" />
    <g
       id="g4443"
       transform="matrix(0.5092608,0,0,0.5092608,-282.11946,95.667786)">
      <path
         style="fill:#e7c73c;fill-opacity:1;stroke:#000000;stroke-width:0.76373315;stroke-linejoin:bevel;stroke-miterlimit:4;stroke-dasharray:none;stroke-opacity:1"
         d="m -278.78949,-130.71051 c -0.12962,0 -0.25274,0.0219 -0.3725,0.0525 l -113.8117,0 c -3.76677,0 -6.79881,3.03205 -6.79881,6.79882 l 0,68.555626 -4.70527,0 c -1.9469,0 -3.51444,1.567539 -3.51444,3.51444 l 0,10.542217 c 0,1.946905 1.56754,3.514434 3.51444,3.514434 l 17.34213,0 c 0.49583,0 0.96652,-0.102231 1.3935,-0.285928 l 1.08457,0 a 28.174808,24.385112 0 0 1 -0.51161,-4.533273 28.174808,24.385112 0 0 1 28.17469,-24.385241 28.174808,24.385112 0 0 1 28.17574,24.385241 28.174808,24.385112 0 0 1 -0.50724,4.533273 l 45.52339,0 a 28.174808,24.385112 0 0 1 -0.51054,-4.533273 28.174808,24.385112 0 0 1 28.17468,-24.385241 28.174808,24.385112 0 0 1 28.17467,24.385241 28.174808,24.385112 0 0 1 -0.79755,5.641941 l 10.71199,0 c 3.36926,0 6.08125,-2.711983 6.08125,-6.081249 l 0,-28.584383 c 0,-2.06628 -1.02254,-3.882177 -2.5887,-4.98025 l 0.33082,0 -22.1821,-12.461574 -21.03735,-34.223031 0.13585,0 c 0.82762,0 1.49431,-0.66663 1.49431,-1.4943 l 0,-4.48178 c 0,-0.82767 -0.66669,-1.4943 -1.49431,-1.4943 l -21.47991,0 z"
         id="path4188"
         inkscape:connector-curvature="0" />
      <path
         style="fill:#60d2cd;fill-opacity:1;stroke:#000000;stroke-width:0.28774568;stroke-miterlimit:4;stroke-dasharray:none;stroke-opacity:1"
         d="m -283.90222,-119.32606 18.13129,0 15.01494,29.746615 -33.14623,0 z"
         id="path4190"
         inkscape:connector-curvature="0"
         sodipodi:nodetypes="ccccc" />
      <g
         id="g4433">
        <circle
           style="fill:#656565;fill-opacity:1;stroke:none;stroke-width:0.51300001;stroke-miterlimit:4;stroke-dasharray:none;stroke-opacity:1"
           id="circle4200"
           cx="-255.35492"
           cy="-41.105564"
           r="20.63339" />
        <circle
           style="fill:#c0c0c0;fill-opacity:1;stroke:none;stroke-width:0.51300001;stroke-miterlimit:4;stroke-dasharray:none;stroke-opacity:1"
           id="circle4202"
           cx="-255.35492"
           cy="-41.105564"
           r="9.8158855" />
      </g>
      <g
         id="g4395"
         transform="matrix(1.0179817,0,0,0.73995949,-1381.6701,-585.04932)"
         style="fill:#e28228;fill-opacity:1">
        <rect
           transform="matrix(-0.017887,-0.99984001,0.99999987,-5.1414851e-4,0,0)"
           style="fill:#e28228;fill-opacity:1;stroke:none;stroke-width:0.91299999;stroke-miterlimit:4;stroke-dasharray:none;stroke-opacity:1"
           id="rect4397"
           width="9.557991"
           height="88.265411"
           x="-676.80499"
           y="967.02112" />
        <rect
           transform="matrix(-0.02101213,-0.99977922,0.9999999,-4.3764989e-4,0,0)"
           y="965.10742"
           x="-659.17194"
           height="88.265404"
           width="8.1364393"
           id="rect4399"
           style="fill:#e28228;fill-opacity:1;stroke:none;stroke-width:0.91299999;stroke-miterlimit:4;stroke-dasharray:none;stroke-opacity:1" />
        <rect
           transform="matrix(-0.01724576,-0.99985128,0.99999986,-5.3326921e-4,0,0)"
           style="fill:#e28228;fill-opacity:1;stroke:none;stroke-width:0.91299999;stroke-miterlimit:4;stroke-dasharray:none;stroke-opacity:1"
           id="rect4401"
           width="9.9133921"
           height="88.265411"
           x="-643.04883"
           y="967.70142" />
      </g>
      <g
         transform="translate(-102,0)"
         id="g4437">
        <circle
           r="20.63339"
           cy="-41.105564"
           cx="-255.35492"
           id="circle4439"
           style="fill:#656565;fill-opacity:1;stroke:none;stroke-width:0.51300001;stroke-miterlimit:4;stroke-dasharray:none;stroke-opacity:1" />
        <circle
           r="9.8158855"
           cy="-41.105564"
           cx="-255.35492"
           id="circle4441"
           style="fill:#c0c0c0;fill-opacity:1;stroke:none;stroke-width:0.51300001;stroke-miterlimit:4;stroke-dasharray:none;stroke-opacity:1" />
      </g>
    </g>
    <g
       id="g4469"
       transform="matrix(1.0179817,0,0,0.73995949,-1076.6701,-673.62075)"
       style="fill:#e28228;fill-opacity:1">
      <rect
         transform="matrix(-0.017887,-0.99984001,0.99999987,-5.1414851e-4,0,0)"
         style="fill:#e28228;fill-opacity:1;stroke:none;stroke-width:0.91299999;stroke-miterlimit:4;stroke-dasharray:none;stroke-opacity:1"
         id="rect4471"
         width="9.557991"
         height="88.265411"
         x="-676.80499"
         y="967.02112" />
      <rect
         transform="matrix(-0.02101213,-0.99977922,0.9999999,-4.3764989e-4,0,0)"
         y="965.10742"
         x="-659.17194"
         height="88.265404"
         width="8.1364393"
         id="rect4473"
         style="fill:#e28228;fill-opacity:1;stroke:none;stroke-width:0.91299999;stroke-miterlimit:4;stroke-dasharray:none;stroke-opacity:1" />
      <rect
         transform="matrix(-0.01724576,-0.99985128,0.99999986,-5.3326921e-4,0,0)"
         style="fill:#e28228;fill-opacity:1;stroke:none;stroke-width:0.91299999;stroke-miterlimit:4;stroke-dasharray:none;stroke-opacity:1"
         id="rect4475"
         width="9.9133921"
         height="88.265411"
         x="-643.04883"
         y="967.70142" />
    </g>
    <g
       id="g4495"
       transform="translate(-316,-4)">
      <path
         inkscape:connector-curvature="0"
         id="path4459"
         d="m 30.49622,-132.85337 c -0.12962,0 -0.25274,0.0219 -0.3725,0.0525 l -113.8117,0 c -3.76677,0 -6.79881,3.03205 -6.79881,6.79882 l 0,68.555629 -4.70527,0 c -1.9469,0 -3.51444,1.567539 -3.51444,3.51444 l 0,10.542217 c 0,1.946905 1.56754,3.514434 3.51444,3.514434 l 17.34213,0 c 0.49583,0 0.96652,-0.102231 1.3935,-0.285928 l 1.08457,0 a 28.174808,24.385112 0 0 1 -0.51161,-4.533273 28.174808,24.385112 0 0 1 28.17469,-24.385241 28.174808,24.385112 0 0 1 28.17574,24.385241 28.174808,24.385112 0 0 1 -0.50724,4.533273 l 45.52339,0 a 28.174808,24.385112 0 0 1 -0.51054,-4.533273 28.174808,24.385112 0 0 1 28.17468,-24.385241 28.174808,24.385112 0 0 1 28.17467,24.385241 28.174808,24.385112 0 0 1 -0.79755,5.641941 l 10.71199,0 c 3.36926,0 6.08125,-2.711983 6.08125,-6.081249 l 0,-28.584383 c 0,-2.06628 -1.02254,-3.882177 -2.5887,-4.98025 l 0.33082,0 -22.1821,-12.461574 -21.03735,-34.223034 0.13585,0 c 0.82762,0 1.49431,-0.66663 1.49431,-1.4943 l 0,-4.48178 c 0,-0.82767 -0.66669,-1.4943 -1.49431,-1.4943 l -21.47991,0 z"
         style="fill:#e7c73c;fill-opacity:1;stroke:#000000;stroke-width:0.76373315;stroke-linejoin:bevel;stroke-miterlimit:4;stroke-dasharray:none;stroke-opacity:1" />
      <path
         sodipodi:nodetypes="ccccc"
         inkscape:connector-curvature="0"
         id="path4461"
         d="m 25.38349,-121.46892 18.13129,0 15.01494,29.746618 -33.14623,0 z"
         style="fill:#60d2cd;fill-opacity:1;stroke:#000000;stroke-width:0.28774568;stroke-miterlimit:4;stroke-dasharray:none;stroke-opacity:1" />
      <g
         transform="translate(309.28571,-2.1428571)"
         id="g4463">
        <circle
           r="20.63339"
           cy="-41.105564"
           cx="-255.35492"
           id="circle4465"
           style="fill:#656565;fill-opacity:1;stroke:none;stroke-width:0.51300001;stroke-miterlimit:4;stroke-dasharray:none;stroke-opacity:1" />
        <circle
           r="9.8158855"
           cy="-41.105564"
           cx="-255.35492"
           id="circle4467"
           style="fill:#c0c0c0;fill-opacity:1;stroke:none;stroke-width:0.51300001;stroke-miterlimit:4;stroke-dasharray:none;stroke-opacity:1" />
      </g>
      <g
         id="g4477"
         transform="translate(207.28571,-2.1428571)">
        <circle
           style="fill:#656565;fill-opacity:1;stroke:none;stroke-width:0.51300001;stroke-miterlimit:4;stroke-dasharray:none;stroke-opacity:1"
           id="circle4479"
           cx="-255.35492"
           cy="-41.105564"
           r="20.63339" />
        <circle
           style="fill:#c0c0c0;fill-opacity:1;stroke:none;stroke-width:0.51300001;stroke-miterlimit:4;stroke-dasharray:none;stroke-opacity:1"
           id="circle4481"
           cx="-255.35492"
           cy="-41.105564"
           r="9.8158855" />
      </g>
      <g
         id="g4204"
         transform="matrix(0.73442896,0,0,0.73442896,-373.8653,-836.15983)">
        <rect
           transform="matrix(0.99999996,2.6991806e-4,-2.6991806e-4,0.99999996,0,0)"
           y="976.38605"
           x="421.69839"
           height="46.10717"
           width="29.446598"
           id="rect4206"
           style="fill:#009246;fill-opacity:1;stroke:none;stroke-width:0.91299999;stroke-miterlimit:4;stroke-dasharray:none;stroke-opacity:1" />
        <rect
           transform="matrix(0.99999996,2.6991806e-4,-2.6991806e-4,0.99999996,0,0)"
           style="fill:#ffffff;fill-opacity:1;stroke:none;stroke-width:0.91299999;stroke-miterlimit:4;stroke-dasharray:none;stroke-opacity:1"
           id="rect4208"
           width="29.446598"
           height="46.10717"
           x="450.83505"
           y="976.38605" />
        <rect
           transform="matrix(0.99999996,2.6991806e-4,-2.6991806e-4,0.99999996,0,0)"
           y="976.38605"
           x="479.5842"
           height="46.10717"
           width="29.446598"
           id="rect4210"
           style="fill:#ce2b37;fill-opacity:1;stroke:none;stroke-width:0.91299999;stroke-miterlimit:4;stroke-dasharray:none;stroke-opacity:1" />
      </g>
    </g>
  </g>
</svg>
