<svg xmlns="http://www.w3.org/2000/svg" width="424.911" height="54.679" viewBox="0 0 398.35399 51.261953"><g font-weight="400" letter-spacing="0" word-spacing="0"><g style="line-height:125%" font-size="47.752" font-family="Milkshake" fill="#009246"><path style="-inkscape-font-specification:Milkshake" d="M71.591 0q.812 0 1.433.525.62.478.62 1.433 0 .668-.334 1.241-.286.526-.764.955-.43.43-1.003.717-.573.286-1.098.382-.286.286-.573 1.098-.286.764-.573 2.197-.286 1.432-.668 3.629-.382 2.196-.908 5.3-.62 3.868-1.766 7.115-1.146 3.2-2.866 5.54-1.719 2.291-4.058 3.628-2.34 1.29-5.396 1.29-2.101 0-3.868-.86-1.72-.86-2.96-2.101-1.242-1.242-1.959-2.626-.668-1.433-.668-2.531 0-.382.143-.669.191-.286.573-.286.334 0 .478.19l.286.383q.334.525.86 1.146.525.573 1.241 1.146.716.525 1.576.907.907.334 2.006.334 2.148 0 3.867-1.002 1.72-1.003 3.057-2.722 1.384-1.767 2.387-4.202 1.05-2.436 1.815-5.3.764-2.866 1.384-4.967.669-2.149 1.194-3.581.573-1.672 1.099-2.865-3.2.907-5.73 2.483-1.099.668-2.102 1.576-1.002.86-1.814 2.005-.812 1.098-1.29 2.483-.477 1.385-.477 3.056 0 1.528.573 2.292.573.764 1.098 1.194.239.239.478.43.286.19.286.477 0 .621-.955.621-.86 0-2.053-.525-1.194-.525-2.292-1.48-1.098-.955-1.862-2.292-.764-1.385-.764-3.057 0-1.814.811-3.342.86-1.528 2.245-2.77 1.432-1.241 3.247-2.196 1.862-.955 3.82-1.72 2.005-.763 4.011-1.289 2.006-.525 3.725-.86Q68.2 1.05 69.347.526 70.493 0 71.59 0zM77.327 31.85q.955 0 1.862-.62.955-.621 1.671-1.433.86-.86 1.576-2.053.048-.144.239-.335.095-.095.286-.19.191-.144.43-.144.382 0 .669.287.334.286.334.668 0 .191-.096.382-.047.143-.143.334-.095.191-.19.43-1.051 1.671-2.34 2.96-1.099 1.099-2.627 2.006-1.48.908-3.247.908-1.146 0-2.34-.43-1.194-.382-2.197-1.146-.955-.764-1.623-1.815-.62-1.05-.62-2.292 0-1.003.238-2.435.239-1.48.668-3.2.43-1.719.955-3.629.573-1.91 1.194-3.772h-1.29q-.381 0-.381-.43 0-.382.43-1.003.477-.668 1.002-.668h.955q.717-1.958 1.385-3.581.717-1.672 1.385-2.818.191-.382.525-.62.335-.287.764-.287.526 0 1.146.334.669.334 1.242.812.573.43.955.907.382.478.382.812 0 .334-.478 1.528-.43 1.146-1.098 2.913h3.2q.382 0 .382.43 0 .19-.144.477-.143.287-.382.573-.19.239-.43.43-.238.191-.477.191h-2.96q-.574 1.576-1.194 3.343-.573 1.766-1.05 3.485-.478 1.72-.813 3.343-.286 1.576-.286 2.865 0 1.098.716 1.815.764.668 1.815.668z"/><path style="-inkscape-font-specification:Milkshake" d="M106.621 29.176q-1.05 1.671-2.34 2.96-1.098 1.099-2.626 2.006-1.48.908-3.247.908-2.005 0-3.39-1.003-1.385-1.05-1.624-3.056-.955 1.194-2.053 2.053-.955.764-2.149 1.385-1.194.62-2.578.62-.955 0-1.863-.381-.86-.335-1.528-1.003-.62-.669-1.003-1.576-.382-.907-.382-2.006 0-2.578.955-5.109 1.003-2.53 2.579-4.536 1.576-2.054 3.534-3.295Q90.863 15.9 92.82 15.9q1.433 0 2.436.382 1.002.335 1.623.764.716.526 1.146 1.099.525 0 1.098.143.621.095 1.099.382.525.239.86.668.334.43.334 1.05 0 .526-.43 1.72t-.955 2.674q-.526 1.433-.955 3.008-.43 1.528-.43 2.722 0 .573.334.955.382.382 1.003.382.955 0 1.862-.62.955-.621 1.672-1.433.86-.86 1.575-2.053.048-.144.24-.335.095-.095.286-.19.19-.144.43-.144.381 0 .668.287.334.286.334.668 0 .191-.095.382-.048.143-.144.334-.095.191-.19.43zm-11.078-8.452q0-1.05-.525-1.528-.478-.525-1.194-.525-1.05 0-2.149 1.098-1.098 1.098-2.005 2.722-.86 1.576-1.433 3.438-.573 1.862-.573 3.343 0 2.148 1.385 2.148.86 0 1.958-1.146 1.146-1.146 2.149-2.817 1.002-1.671 1.67-3.486.717-1.862.717-3.247z"/><path style="-inkscape-font-specification:Milkshake" d="M120.403 5.205q0-.669-.573-.669-.669 0-1.767 1.48-1.05 1.481-2.244 3.869-1.146 2.387-2.292 5.348-1.146 2.96-1.863 5.969.812-.669 1.767-1.91 1.003-1.242 1.958-2.77.955-1.576 1.862-3.247.908-1.671 1.576-3.2.716-1.575 1.146-2.865.43-1.289.43-2.005zm-8.357 29.845q-1.432 0-2.77-.478-1.288-.477-2.291-1.385-1.003-.955-1.624-2.292-.573-1.337-.573-3.008 0-2.388.525-5.3.574-2.913 1.576-5.826 1.003-2.96 2.292-5.73 1.337-2.77 2.913-4.919 1.576-2.196 3.247-3.486 1.72-1.289 3.438-1.289.812 0 1.528.382.717.382 1.242.955.573.573.907 1.29.335.668.335 1.289 0 1.002-.573 2.578-.526 1.528-1.433 3.343-.907 1.767-2.149 3.677-1.194 1.91-2.53 3.724-1.29 1.767-2.627 3.343-1.337 1.528-2.53 2.53-.096.574-.192 1.195-.095.525-.143 1.193-.048.621-.048 1.242 0 1.671.764 2.722.812 1.05 2.292 1.05.955 0 1.863-.62.955-.621 1.67-1.433.86-.86 1.577-2.053.047-.144.238-.335.096-.095.287-.19.19-.144.43-.144.382 0 .668.287.334.286.334.668 0 .191-.095.382-.048.143-.143.334-.096.191-.191.43-1.05 1.671-2.34 2.96-1.098 1.099-2.626 2.006-1.48.908-3.248.908z"/><path style="-inkscape-font-specification:Milkshake" d="M131.011 7.067q0 .955-.334 1.863-.287.86-.86 1.575-.525.669-1.241 1.099-.669.382-1.433.382-1.05 0-1.814-.717-.764-.716-.764-2.005 0-.907.334-1.767.334-.86.86-1.528.573-.716 1.289-1.098.716-.43 1.528-.43 1.05 0 1.719.716.716.716.716 1.91zm-6.876 22.969q0 .811.382 1.337.43.477 1.146.477.955 0 1.862-.62.955-.621 1.672-1.433.86-.86 1.576-2.053.047-.144.238-.335.096-.095.287-.19.19-.144.43-.144.382 0 .668.287.334.286.334.668 0 .191-.095.382-.048.143-.143.334-.096.191-.191.43-1.051 1.671-2.34 2.96-1.099 1.099-2.627 2.006-1.48.908-3.247.908-2.722 0-4.393-1.433-1.671-1.48-1.671-3.82 0-1.29.43-3.104t1.002-3.677q.573-1.862 1.194-3.533.669-1.672 1.098-2.674.191-.382.526-.621.334-.287.764-.287.525 0 1.194.335.668.334 1.241.764.573.43.955.907.382.43.382.716 0 1.098-.43 2.388-.43 1.241-.955 2.674-.477 1.432-.907 3.056-.382 1.576-.382 3.295z"/><path style="-inkscape-font-specification:Milkshake" d="M155.026 29.176q-1.05 1.671-2.34 2.96-1.098 1.099-2.626 2.006-1.48.908-3.247.908-2.006 0-3.39-1.003-1.386-1.05-1.624-3.056-.955 1.194-2.054 2.053-.955.764-2.149 1.385-1.193.62-2.578.62-.955 0-1.862-.381-.86-.335-1.528-1.003-.621-.669-1.003-1.576-.382-.907-.382-2.006 0-2.578.955-5.109 1.003-2.53 2.578-4.536 1.576-2.054 3.534-3.295 1.958-1.242 3.916-1.242 1.432 0 2.435.382 1.003.335 1.623.764.717.526 1.147 1.099.525 0 1.098.143.62.095 1.098.382.525.239.86.668.334.43.334 1.05 0 .526-.43 1.72t-.955 2.674q-.525 1.433-.955 3.008-.43 1.528-.43 2.722 0 .573.335.955.382.382 1.002.382.955 0 1.863-.62.955-.621 1.67-1.433.86-.86 1.577-2.053.048-.144.239-.335.095-.095.286-.19.191-.144.43-.144.382 0 .668.287.335.286.335.668 0 .191-.096.382-.048.143-.143.334-.096.191-.191.43zm-11.079-8.452q0-1.05-.525-1.528-.477-.525-1.194-.525-1.05 0-2.148 1.098-1.099 1.098-2.006 2.722-.86 1.576-1.433 3.438-.573 1.862-.573 3.343 0 2.148 1.385 2.148.86 0 1.958-1.146 1.146-1.146 2.149-2.817 1.003-1.671 1.671-3.486.716-1.862.716-3.247z"/><path style="-inkscape-font-specification:Milkshake" d="M170.192 30.036q0 .811.382 1.337.43.477 1.146.477.955 0 1.862-.62.956-.621 1.672-1.433.86-.86 1.576-2.053.047-.144.238-.335.096-.095.287-.19.19-.144.43-.144.382 0 .668.287.334.286.334.668 0 .191-.095.382-.048.143-.143.334-.096.191-.191.43-1.05 1.671-2.34 2.96-1.098 1.099-2.627 2.006-1.48.908-3.247.908-2.721 0-4.393-1.385-1.671-1.433-1.671-3.438 0-1.48.382-2.818.382-1.384.812-2.674.477-1.289.86-2.435.381-1.194.381-2.292 0-.334-.286-.525-.287-.24-.669-.24-1.098 0-2.387 1.051-1.242 1.003-2.388 2.961-1.098 1.91-1.862 4.68-.716 2.721-.716 6.16 0 .62-.287.764-.239.19-.764.19-1.91 0-3.2-.716-1.289-.764-1.289-1.91 0-2.005.478-4.202.43-2.244 1.05-4.297.621-2.102 1.242-3.868.668-1.767 1.098-2.77.382-.907 1.29-.907.525 0 1.384.43.86.43 1.958 2.148 1.003-.86 2.244-1.528 1.05-.573 2.388-1.05 1.337-.478 2.865-.478.764 0 1.48.382.764.382 1.337 1.003.573.573.908 1.29.334.716.334 1.432 0 1.098-.43 2.34-.382 1.193-.86 2.483-.43 1.29-.859 2.626-.382 1.29-.382 2.579z"/></g><g style="line-height:125%" font-size="48.117" font-family="Milkshake" fill="#fff" stroke="#000" stroke-width="1.203"><path style="-inkscape-font-specification:Milkshake" d="M199.423 32.785q-.096.963-.192 1.973-.097.866-.145 1.877-.048 1.058-.048 2.02 0 2.84.626 3.946.673 1.107 1.299 1.107.433 0 .722-.337.336-.289.529-.77.192-.481.289-1.106.096-.578.096-1.155 0-1.54-.53-2.935-.48-1.396-1.058-2.406-.722-1.203-1.588-2.214zM211.212 5.07q0-.962-1.01-.962-.674 0-1.685 1.54-.962 1.491-2.117 3.945-1.107 2.454-2.213 5.582-1.107 3.079-2.021 6.255.77-.578 1.732-1.829 1.01-1.25 2.02-2.79 1.011-1.588 1.926-3.32.962-1.78 1.684-3.369.77-1.636 1.203-2.983.48-1.347.48-2.069zm.144 23.866q-.481.674-1.203 1.54-.673.818-1.684 1.54-.962.721-2.358 1.25-1.347.482-3.175.482.77.673 1.347 1.636.53.818.962 2.02.433 1.252.433 2.791 0 .915-.336 1.877-.337 1.01-.963 1.828-.625.866-1.54 1.396-.914.529-2.069.529-1.058 0-2.31-.433-1.25-.385-2.309-1.347-1.058-.963-1.78-2.55-.722-1.54-.722-3.85 0-3.897.674-8.132.625-4.282 1.732-8.372t2.598-7.747q1.54-3.705 3.272-6.447 1.732-2.791 3.609-4.427 1.877-1.636 3.705-1.636.818 0 1.588.433.818.385 1.443 1.058.626.626 1.01 1.396.386.722.386 1.347 0 1.01-.578 2.598-.577 1.588-1.587 3.513-.963 1.877-2.262 3.946-1.251 2.069-2.695 3.993-1.395 1.877-2.887 3.513-1.443 1.636-2.742 2.694-.385 1.107-.626 2.358-.24 1.251-.337 2.502.337.433.818.722.385.24.963.481.577.193 1.347.193 1.251 0 2.262-.385 1.01-.385 1.828-.963.818-.625 1.443-1.347.674-.77 1.203-1.444.049-.144.241-.336.096-.097.289-.193.192-.144.433-.144.385 0 .673.289.337.288.337.673 0 .193-.096.385-.048.144-.144.337-.097.192-.193.433z"/><path style="-inkscape-font-specification:Milkshake" d="M232.75 28.936q-.817 1.203-2.068 2.069-1.059.818-2.647 1.444-1.54.625-3.656.625-.867 0-1.877-.144-1.155.914-2.55 1.443-1.396.481-2.935.481-1.492 0-2.887-.529-1.348-.53-2.406-1.443-1.01-.915-1.636-2.166-.578-1.25-.578-2.646 0-3.031 1.01-5.341 1.06-2.358 2.695-3.946 1.636-1.588 3.61-2.406 1.972-.818 3.849-.818 1.491 0 2.79.482 1.3.48 2.214 1.443.962.914 1.491 2.262.578 1.299.578 2.935 0 1.924-.818 4.042-.77 2.117-2.166 3.945.193.048.337.096h.433q1.251 0 2.262-.48 1.01-.53 1.78-1.156.866-.721 1.636-1.636.048-.144.24-.336.097-.097.29-.193.192-.144.432-.144.385 0 .674.289.337.288.337.673 0 .193-.096.385-.048.144-.145.337-.096.192-.192.433zm-17.562.337q0 1.443.578 2.358.625.914 1.732.914.77 0 1.491-.578-.818-.529-.818-1.154 0-.385.241-.818.289-.433.674-.77.385-.337.77-.53.433-.24.721-.24.24 0 .53.096.721-1.828 1.106-3.85.385-2.068.385-3.656 0-1.636-.53-2.31-.528-.722-1.346-.722-.818 0-1.78.867-.963.818-1.83 2.357-.817 1.492-1.394 3.56-.53 2.022-.53 4.476z"/><path style="-inkscape-font-specification:Milkshake" d="M254.178 28.936q-.818 1.203-2.07 2.069-1.058.818-2.645 1.444-1.54.625-3.657.625-.866 0-1.877-.144-1.155.914-2.55 1.443-1.396.481-2.935.481-1.492 0-2.887-.529-1.348-.53-2.406-1.443-1.01-.915-1.636-2.166-.578-1.25-.578-2.646 0-3.031 1.01-5.341 1.06-2.358 2.695-3.946 1.636-1.588 3.61-2.406 1.972-.818 3.849-.818 1.491 0 2.79.482 1.3.48 2.214 1.443.962.914 1.491 2.262.578 1.299.578 2.935 0 1.924-.818 4.042-.77 2.117-2.165 3.945.192.048.336.096h.433q1.251 0 2.262-.48 1.01-.53 1.78-1.156.866-.721 1.636-1.636.048-.144.24-.336.097-.097.29-.193.192-.144.433-.144.385 0 .673.289.337.288.337.673 0 .193-.096.385-.048.144-.145.337-.096.192-.192.433zm-17.563.337q0 1.443.578 2.358.625.914 1.732.914.77 0 1.492-.578-.818-.529-.818-1.154 0-.385.24-.818.289-.433.674-.77.385-.337.77-.53.433-.24.721-.24.241 0 .53.096.721-1.828 1.106-3.85.385-2.068.385-3.656 0-1.636-.529-2.31-.53-.722-1.347-.722-.818 0-1.78.867-.963.818-1.829 2.357-.818 1.492-1.395 3.56-.53 2.022-.53 4.476z"/><path style="-inkscape-font-specification:Milkshake" d="M266.222 19.024l-.385-.385q-.192-.144-.433-.24-.24-.145-.529-.145-1.155 0-2.358 1.107-1.155 1.106-2.117 2.742-.914 1.588-1.492 3.417-.577 1.828-.577 3.32 0 1.299.481 2.02.481.722 1.3.722.77 0 1.683-.577.915-.625 1.733-1.395.914-.866 1.876-2.021.048-2.166.24-4.235.241-2.117.578-4.33zm5.149 2.02q2.117-3.464 3.801-6.64.722-1.347 1.395-2.742.722-1.443 1.251-2.743.53-1.299.867-2.405.336-1.107.336-1.925 0-.818-.673-.818-.626 0-1.54 1.54-.914 1.491-1.925 3.945-1.01 2.454-1.972 5.534-.915 3.08-1.54 6.255zm.48 13.81q-1.346 0-2.453-.48-1.107-.53-1.925-1.252-.77-.722-1.25-1.54-.434-.818-.482-1.443-1.155 1.347-2.454 2.358-1.107.914-2.55 1.636-1.395.721-2.887.721-1.01 0-2.021-.433-.962-.433-1.732-1.203t-1.251-1.876q-.481-1.107-.481-2.406 0-2.935 1.154-5.39 1.155-2.501 2.887-4.233 1.733-1.78 3.705-2.743 2.021-1.01 3.705-1.01.674 0 1.251.144.578.096.963.24.48.193.818.385.818-2.935 1.973-5.726 1.154-2.79 2.502-4.956 1.395-2.165 2.935-3.464 1.54-1.3 3.224-1.3.721 0 1.443.386.77.385 1.347 1.01.626.626 1.01 1.444.386.818.386 1.636 0 .866-.481 2.165-.433 1.3-1.203 2.839-.722 1.491-1.684 3.127-.915 1.636-1.925 3.224-2.31 3.705-5.293 7.891-.096.626-.144 1.252-.048.577-.048 1.154 0 2.021.625 3.32.626 1.3 1.973 1.3.962 0 1.876-.626.915-.625 1.636-1.443.867-.867 1.588-2.07.048-.144.24-.336.097-.097.29-.193.192-.144.433-.144.385 0 .673.289.337.288.337.673 0 .193-.096.385-.048.144-.144.337-.097.192-.193.433-1.058 1.684-2.358 2.983-1.106 1.107-2.646 2.021-1.492.914-3.272.914z"/></g><g style="line-height:125%" font-size="47.514" font-family="Milkshake" fill="#ce2b37" stroke-width="1.188"><path style="-inkscape-font-specification:Milkshake" d="M309.812 31.357q.95 0 1.853-.618.95-.617 1.663-1.425.855-.855 1.568-2.043.048-.143.238-.333.095-.095.285-.19.19-.142.427-.142.38 0 .666.285.332.285.332.665 0 .19-.095.38-.047.142-.142.332-.095.19-.19.428-1.046 1.663-2.329 2.946-1.092 1.093-2.613 1.996-1.473.902-3.23.902-1.141 0-2.329-.427-1.188-.38-2.186-1.14-.95-.76-1.615-1.806-.618-1.045-.618-2.28 0-.999.238-2.424.237-1.473.665-3.183.428-1.711.95-3.612.57-1.9 1.188-3.753h-1.283q-.38 0-.38-.428 0-.38.428-.998.475-.665.997-.665h.95q.713-1.948 1.379-3.563.712-1.663 1.378-2.804.19-.38.522-.617.333-.285.76-.285.523 0 1.14.332.666.333 1.236.808.57.427.95.903.38.475.38.807 0 .333-.475 1.52-.427 1.141-1.092 2.9h3.183q.38 0 .38.427 0 .19-.142.475-.143.285-.38.57-.19.238-.428.428t-.475.19h-2.946q-.57 1.568-1.188 3.326-.57 1.758-1.045 3.468t-.808 3.326q-.285 1.568-.285 2.851 0 1.093.713 1.806.76.665 1.805.665z"/><path style="-inkscape-font-specification:Milkshake" d="M326.893 29.694q0 .808.427 1.235.428.428 1.14.428.95 0 1.854-.618.95-.617 1.663-1.425.855-.855 1.568-2.043.047-.143.237-.333.095-.095.285-.19.19-.142.428-.142.38 0 .665.285.333.285.333.665 0 .19-.095.38-.048.142-.143.332-.095.19-.19.428-1.045 1.663-2.328 2.946-1.093 1.093-2.613 1.996-1.473.902-3.231.902-1.378 0-2.471-.38-1.093-.38-1.9-.998-.808-.665-1.236-1.52-.428-.855-.428-1.853 0-1.568.476-2.946.475-1.378.997-2.518.57-1.14 1.046-1.996.475-.903.475-1.473 0-.38-.475-.57-.428-.19-.95-.332-.618-.143-1.426-.238-1.378 3.468-2.613 5.702-1.236 2.185-1.996 3.278-.095.143-.38.428-.238.285-.665.285-.38 0-.665-.285-.333-.333-.333-.713 0-.333.238-.618.19-.332.285-.522.665-.95 1.853-2.994 1.235-2.09 2.28-5.464-.475-.332-.807-.855-.285-.428-.523-1.093-.238-.665-.238-1.568 0-.713.238-1.33.285-.665.713-1.14.427-.476.902-.76.476-.286.903-.286.475 0 .998.285.523.238.95.618.428.332.713.808.285.427.285.76 0 .95-.333 1.568-.285.617-.285 1.188 0 .522.57.76.57.237 1.426.237.808 0 1.33-.095.57-.095.998-.19.428-.142.808-.237.38-.095.808-.095.855 0 1.378.665.57.665.57 1.615 0 .808-.57 1.949-.523 1.092-1.188 2.423-.665 1.33-1.236 2.803-.522 1.426-.522 2.851z"/><path style="-inkscape-font-specification:Milkshake" d="M350.107 29.551q0 .808.38 1.33.428.476 1.14.476.95 0 1.854-.618.95-.617 1.663-1.425.855-.855 1.568-2.043.047-.143.237-.333.095-.095.285-.19.19-.142.428-.142.38 0 .665.285.333.285.333.665 0 .19-.095.38-.048.142-.143.332-.095.19-.19.428-1.045 1.663-2.328 2.946-1.093 1.093-2.613 1.996-1.473.902-3.231.902-1.378 0-2.376-.332-.95-.285-1.663-.76-.665-.523-1.093-1.14-.428-.666-.618-1.331-.57.665-1.33 1.33-.713.618-1.568 1.14-.855.476-1.806.76-.902.333-1.805.333-.808 0-1.71-.38-.856-.332-1.569-.95-.712-.618-1.187-1.473-.476-.855-.476-1.806 0-1.282.428-3.183.428-1.9.998-3.849.57-1.995 1.188-3.753.665-1.758 1.093-2.756.19-.38.522-.618.333-.285.76-.285.523 0 1.188.333.665.332 1.236.76.57.428.95.903.38.427.38.712 0 1.093-.475 2.424-.475 1.33-1.093 2.898-.57 1.52-1.045 3.231-.475 1.663-.475 3.374 0 .57.285.997.285.428.807.428.57 0 1.188-.285.618-.333 1.188-.808.57-.523 1.045-1.093.476-.617.76-1.188.38-.76.903-2.328.523-1.568 1.046-3.326.57-1.758 1.093-3.42.522-1.711.95-2.709.19-.38.523-.618.332-.285.807-.285.523 0 1.14.333.666.332 1.236.76t.95.903q.38.427.38.712 0 1.093-.427 2.376-.428 1.236-.95 2.661-.476 1.425-.903 3.04-.428 1.569-.428 3.28z"/><path style="-inkscape-font-specification:Milkshake" d="M375.826 28.696q-1.236 1.663-2.804 2.946-1.378 1.093-3.373 1.996-1.948.902-4.514.902-1.52 0-3.089-.38-1.52-.38-2.755-1.235-1.236-.855-1.996-2.233-.76-1.378-.76-3.374 0-2.375.95-4.514.998-2.185 2.518-3.8 1.568-1.616 3.469-2.567 1.9-.95 3.706-.95 1.283 0 2.28.428.998.38 1.664 1.045.712.665 1.093 1.52.38.808.38 1.616 0 .618-.285 1.283-.238.618-.666 1.14-.427.523-.95.856-.475.332-.95.332-.95 0-1.71-.57-.713-.618-.713-1.425 0-.618.285-.998t.617-.665q.38-.333.666-.57.332-.286.332-.666 0-.38-.427-.665-.38-.333-.95-.333-1.046 0-2.044.808-.95.76-1.71 2.043-.76 1.283-1.236 2.899-.475 1.568-.475 3.183 0 2.47 1.33 3.659 1.378 1.187 3.374 1.187 1.615 0 2.946-.665 1.33-.665 2.28-1.473 1.14-.95 1.996-2.185.095-.143.285-.333.143-.095.333-.19.19-.142.427-.142.428 0 .713.285t.285.665q0 .19-.095.38-.095.142-.19.332-.142.19-.237.428z"/><path style="-inkscape-font-specification:Milkshake" d="M397.926 28.696q-1.092 1.663-2.375 2.946-1.093 1.093-2.614 1.996-1.473.902-3.183.902-1.283 0-2.803-.76-1.52-.808-2.851-1.948-1.283-1.188-2.186-2.518-.855-1.33-.855-2.423 0-.476 1.045-1.046 1.093-.617 2.328-1.425 1.283-.808 2.329-1.853 1.092-1.046 1.092-2.47 0-1.331-1.092-1.331-1.283 0-2.661 1.045-1.33 1.045-2.471 2.993-1.14 1.9-1.853 4.657-.713 2.708-.713 6.13 0 .427-.19.664-.142.285-.665.285-.475 0-1.283-.142-.76-.095-1.52-.38-.76-.285-1.283-.76-.57-.476-.57-1.236 0-2.09.522-5.226.523-3.136 1.52-6.557.999-3.469 2.376-6.89 1.426-3.468 3.136-6.177 1.71-2.756 3.706-4.466 1.996-1.71 4.23-1.71.76 0 1.52.427.76.38 1.378 1.045.617.618.95 1.378.38.713.38 1.33 0 .998-.523 2.234-.475 1.188-1.235 2.47-.713 1.236-1.568 2.424-.855 1.188-1.615 2.138-.76.903-1.283 1.52-.523.57-.57.618.047-.047.427-.19.38-.19.903-.38.57-.19 1.283-.333.712-.19 1.473-.19 1.235 0 2.185 1.093.998 1.093.998 2.566 0 1.378-1.188 2.566-1.188 1.187-2.613 2.138-1.663 1.093-3.754 2.043 0 .38.428 1.093.475.712 1.235 1.473.76.76 1.758 1.33 1.046.523 2.139.523 1.045 0 1.9-.476.855-.475 1.473-1.045.713-.665 1.283-1.52.047-.143.237-.333.095-.095.286-.19.19-.142.427-.142.38 0 .665.285.333.285.333.665 0 .19-.095.38-.048.142-.143.332-.095.19-.19.428zM390.942 5.13q0-.95-.855-.95-.666 0-1.616 1.045-.903 1.045-1.996 2.946-1.045 1.9-2.233 4.561-1.14 2.614-2.28 5.75.76-.713 1.71-1.758.998-1.046 1.996-2.281.998-1.283 1.948-2.613t1.663-2.566q.76-1.236 1.188-2.328.475-1.093.475-1.806z"/></g><g style="line-height:125%" font-size="18.795" font-family="sans-serif" fill="#fff" stroke="#000" stroke-width=".752"><path d="M.376 11.181h11.59v1.56H7.103v12.142H5.24V12.74H.376v-1.56zM22.236 18.679v6.204h-1.689v-6.149q0-1.46-.569-2.184-.569-.725-1.707-.725-1.367 0-2.156.872-.79.871-.79 2.377v5.809h-1.697v-14.28h1.697v5.598q.606-.927 1.423-1.386.826-.458 1.9-.458 1.77 0 2.68 1.1.908 1.093.908 3.222zM34.414 19.321v.826H26.65q.11 1.744 1.046 2.662.945.908 2.625.908.972 0 1.88-.239.919-.238 1.818-.715v1.596q-.909.386-1.863.588-.954.202-1.936.202-2.46 0-3.9-1.432-1.432-1.432-1.432-3.873 0-2.523 1.358-4 1.367-1.487 3.68-1.487 2.074 0 3.276 1.34 1.212 1.33 1.212 3.624zm-1.69-.495q-.017-1.386-.78-2.212-.752-.826-2-.826-1.413 0-2.266.799-.845.798-.973 2.248l6.02-.01z"/></g><g style="line-height:125%" font-size="11.353" font-family="sans-serif" fill="#fff" stroke="#000" stroke-width=".284"><path d="M255.48 42.683h1.12v8.276h-1.12v-8.276zM259.794 42.988v1.763h2.1v.792h-2.1v3.37q0 .76.205.976.21.217.848.217h1.047v.853h-1.047q-1.181 0-1.63-.438-.449-.443-.449-1.607v-3.37h-.748v-.793h.748v-1.763h1.026zM266.063 47.838q-1.236 0-1.713.283-.477.283-.477.965 0 .543.355.864.36.316.976.316.848 0 1.358-.598.516-.605.516-1.602v-.228h-1.015zm2.035-.421v3.542h-1.02v-.942q-.35.565-.87.837-.522.266-1.276.266-.953 0-1.519-.532-.56-.538-.56-1.436 0-1.048.699-1.58.704-.532 2.095-.532h1.43v-.1q0-.704-.465-1.086-.46-.388-1.297-.388-.532 0-1.037.127-.504.128-.97.383v-.943q.56-.216 1.087-.321.526-.111 1.025-.111 1.347 0 2.012.698.666.699.666 2.118zM270.204 42.334h1.02v8.625h-1.02v-8.625zM273.353 44.75h1.02v6.21h-1.02v-6.21zm0-2.416h1.02v1.291h-1.02v-1.291zM279.323 47.838q-1.236 0-1.713.283-.477.283-.477.965 0 .543.355.864.36.316.976.316.848 0 1.358-.598.515-.605.515-1.602v-.228h-1.014zm2.034-.421v3.542h-1.02v-.942q-.349.565-.87.837-.52.266-1.275.266-.953 0-1.519-.532-.56-.538-.56-1.436 0-1.048.699-1.58.704-.532 2.095-.532h1.43v-.1q0-.704-.465-1.086-.46-.388-1.297-.388-.533 0-1.037.127-.504.128-.97.383v-.943q.56-.216 1.086-.321.527-.111 1.026-.111 1.347 0 2.012.698.665.699.665 2.118zM288.625 47.212v3.747h-1.02v-3.714q0-.881-.344-1.32-.344-.437-1.03-.437-.827 0-1.304.527-.476.526-.476 1.435v3.51h-1.026v-6.21h1.026v.965q.366-.56.859-.837.499-.277 1.147-.277 1.07 0 1.62.665.548.66.548 1.946zM297.428 42.334v.848h-.976q-.549 0-.765.222-.21.221-.21.798v.549h1.68v.792h-1.68v5.416h-1.026v-5.416h-.976v-.792h.976v-.433q0-1.036.482-1.508.483-.476 1.53-.476h.965zM300.682 45.466q-.82 0-1.297.643-.477.637-.477 1.752 0 1.114.471 1.757.477.637 1.303.637.815 0 1.291-.643.477-.643.477-1.751 0-1.104-.477-1.747-.476-.648-1.291-.648zm0-.865q1.33 0 2.09.865.76.865.76 2.395 0 1.524-.76 2.394-.76.865-2.09.865-1.336 0-2.096-.865-.753-.87-.753-2.394 0-1.53.753-2.395.76-.865 2.096-.865zM307.622 45.466q-.82 0-1.297.643-.477.637-.477 1.752 0 1.114.471 1.757.477.637 1.303.637.815 0 1.292-.643.477-.643.477-1.751 0-1.104-.477-1.747-.477-.648-1.292-.648zm0-.865q1.33 0 2.09.865.76.865.76 2.395 0 1.524-.76 2.394-.76.865-2.09.865-1.336 0-2.095-.865-.754-.87-.754-2.394 0-1.53.754-2.395.76-.865 2.095-.865zM316.242 45.693v-3.36h1.02v8.626h-1.02v-.931q-.321.554-.815.826-.487.266-1.175.266-1.125 0-1.835-.898-.704-.898-.704-2.361 0-1.464.704-2.362.71-.898 1.835-.898.688 0 1.175.272.494.266.815.82zm-3.476 2.168q0 1.125.46 1.768.466.637 1.276.637.809 0 1.275-.637.465-.643.465-1.768 0-1.126-.465-1.763-.466-.643-1.275-.643-.81 0-1.275.643-.46.637-.46 1.763zM325.383 45.466q-.82 0-1.297.643-.477.637-.477 1.752 0 1.114.472 1.757.476.637 1.302.637.815 0 1.292-.643.477-.643.477-1.751 0-1.104-.477-1.747-.477-.648-1.292-.648zm0-.865q1.33 0 2.09.865.76.865.76 2.395 0 1.524-.76 2.394-.76.865-2.09.865-1.336 0-2.095-.865-.754-.87-.754-2.394 0-1.53.754-2.395.76-.865 2.095-.865zM335.079 47.212v3.747h-1.02v-3.714q0-.881-.344-1.32-.344-.437-1.031-.437-.826 0-1.303.527-.476.526-.476 1.435v3.51h-1.026v-6.21h1.026v.965q.365-.56.859-.837.499-.277 1.147-.277 1.07 0 1.619.665.549.66.549 1.946zM341.748 42.988v1.763h2.1v.792h-2.1v3.37q0 .76.205.976.21.217.848.217h1.047v.853h-1.047q-1.181 0-1.63-.438-.449-.443-.449-1.607v-3.37h-.748v-.793h.748v-1.763h1.026zM350.356 47.212v3.747h-1.02v-3.714q0-.881-.343-1.32-.344-.437-1.031-.437-.826 0-1.303.527-.477.526-.477 1.435v3.51h-1.025v-8.626h1.025v3.381q.366-.56.86-.837.498-.277 1.147-.277 1.07 0 1.619.665.548.66.548 1.946zM357.713 47.6v.499h-4.69q.066 1.053.632 1.607.57.55 1.585.55.588 0 1.137-.145.554-.144 1.097-.432v.964q-.549.233-1.125.355-.577.122-1.17.122-1.485 0-2.356-.865-.864-.865-.864-2.34 0-1.523.82-2.416.826-.898 2.223-.898 1.253 0 1.979.81.732.803.732 2.189zm-1.02-.3q-.012-.836-.472-1.335-.454-.5-1.208-.5-.854 0-1.37.483-.51.482-.587 1.358l3.637-.006zM367.835 45.942q.382-.687.915-1.014.532-.327 1.252-.327.97 0 1.497.682.527.676.527 1.929v3.747H371v-3.714q0-.892-.316-1.325-.316-.432-.964-.432-.793 0-1.253.527-.46.526-.46 1.435v3.51h-1.026v-3.715q0-.898-.316-1.325-.316-.432-.975-.432-.782 0-1.242.532-.46.527-.46 1.43v3.51h-1.026v-6.21h1.026v.965q.349-.57.837-.842t1.158-.272q.677 0 1.148.344.477.343.704.997zM376.472 45.466q-.82 0-1.298.643-.476.637-.476 1.752 0 1.114.47 1.757.478.637 1.304.637.814 0 1.291-.643t.477-1.751q0-1.104-.477-1.747-.477-.648-1.291-.648zm0-.865q1.33 0 2.09.865.759.865.759 2.395 0 1.524-.76 2.394-.759.865-2.09.865-1.335 0-2.095-.865-.754-.87-.754-2.394 0-1.53.754-2.395.76-.865 2.096-.865zM380.274 44.75h1.081l1.94 5.211 1.94-5.21h1.082l-2.329 6.208h-1.385l-2.329-6.208zM393.035 47.6v.499h-4.69q.067 1.053.633 1.607.57.55 1.585.55.588 0 1.136-.145.555-.144 1.098-.432v.964q-.549.233-1.125.355-.577.122-1.17.122-1.486 0-2.356-.865-.865-.865-.865-2.34 0-1.523.82-2.416.827-.898 2.224-.898 1.252 0 1.979.81.731.803.731 2.189zm-1.02-.3q-.01-.836-.47-1.335-.455-.5-1.21-.5-.853 0-1.369.483-.51.482-.587 1.358l3.636-.006z"/></g></g></svg>