<?xml version="1.0" encoding="utf-8"?>
<!-- Generator: Adobe Illustrator 19.1.0, SVG Export Plug-In . SVG Version: 6.00 Build 0)  -->
<svg version="1.1" id="Layer_1" xmlns="http://www.w3.org/2000/svg" xmlns:xlink="http://www.w3.org/1999/xlink" x="0px" y="0px"
	 viewBox="688.4 146.2 727.9 461.2" style="enable-background:new 688.4 146.2 727.9 461.2;" xml:space="preserve">
<style type="text/css">
	.st0{fill:#D11919;}
</style>
<path id="Jalapeno" class="st0" d="M1143.9,211.2c-12.1-7.5-4.6-24.1,6.7-21.3c86.4,21.5,111.6,2.7,153.5-25.9
	c46-31.4,94.8-19.4,111.3,21.6c3.4,8.4-3.5,18.2-8.8,10.1c-40.2-62.1-146.2,56.6-47,127.3c12.6,9,2.5,25.5-9.1,18.2
	C1338.8,333.9,1143.9,211.2,1143.9,211.2z M1067.2,284.2c43-35.5,124.3-0.9,124.9,57.5c55.9-17.4,104,33.2,101.1,68.4
	c-11.9,146.2-419.1,339-601.7,39.7c-12.3-20.1,13.7-45.6,45.6-25.7C928.8,544.3,1016.7,325.8,1067.2,284.2L1067.2,284.2z"/>
</svg>
