<svg xmlns="http://www.w3.org/2000/svg" width="209.907" height="117.995" viewBox="0 0 196.78784 110.62029"><path d="M129.585.382c-.13 0-.253.022-.373.052H15.4a6.784 6.784 0 0 0-6.798 6.8v68.555H3.896a3.507 3.507 0 0 0-3.514 3.514v10.543a3.507 3.507 0 0 0 3.514 3.514h17.342c.496 0 .967-.102 1.394-.286h1.085a28.175 24.385 0 0 1-.512-4.533A28.175 24.385 0 0 1 51.38 64.156 28.175 24.385 0 0 1 79.555 88.54a28.175 24.385 0 0 1-.507 4.533h45.523a28.175 24.385 0 0 1-.51-4.533 28.175 24.385 0 0 1 28.175-24.385A28.175 24.385 0 0 1 180.41 88.54a28.175 24.385 0 0 1-.797 5.642h10.712a6.068 6.068 0 0 0 6.081-6.082V59.517a6.062 6.062 0 0 0-2.589-4.98h.331l-22.182-12.462-21.037-34.223h.135c.828 0 1.495-.666 1.495-1.494V1.876c0-.828-.667-1.494-1.495-1.494h-21.48z" fill="#f7d74a" stroke="#000" stroke-width=".764" stroke-linejoin="bevel"/><path d="M124.472 11.766h18.131l15.015 29.747h-33.146z" fill="#60d2cd" stroke="#000" stroke-width=".288"/><g transform="translate(408.374 131.092)"><circle cx="-255.355" cy="-41.106" r="20.633" fill="#656565"/><circle cx="-255.355" cy="-41.106" r="9.816" fill="silver"/></g><g transform="translate(306.374 131.092)"><circle r="20.633" cy="-41.106" cx="-255.355" fill="#656565"/><circle r="9.816" cy="-41.106" cx="-255.355" fill="silver"/></g><path fill="#009246" d="M34.737 14.245l21.626.006-.009 33.862-21.626-.005z"/><path fill="#fff" d="M56.136 14.251l21.627.006-.01 33.862-21.626-.006z"/><path fill="#ce2b37" d="M77.25 14.257l21.627.006-.01 33.862-21.626-.006z"/></svg>